<?xml version="1.0" standalone="no"?>
<!DOCTYPE svg PUBLIC "-//W3C//DTD SVG 20010904//EN"
 "http://www.w3.org/TR/2001/REC-SVG-20010904/DTD/svg10.dtd">
<svg version="1.0" xmlns="http://www.w3.org/2000/svg"
 width="1024.000000pt" height="1024.000000pt" viewBox="0 0 1024.000000 1024.000000"
 preserveAspectRatio="xMidYMid meet">
<metadata>
Created by potrace 1.16, written by Peter Selinger 2001-2019
</metadata>
<g transform="translate(0.000000,1024.000000) scale(0.100000,-0.100000)"
fill="#000000" stroke="none">
<path d="M5317 9099 c-9 -5 -24 -24 -33 -40 -47 -91 66 -170 146 -102 32 26
32 26 167 4 141 -23 331 -80 422 -125 48 -25 79 -27 65 -5 -20 32 -337 148
-519 190 -85 19 -104 27 -131 56 -33 35 -80 44 -117 22z"/>
<path d="M4250 8875 c-212 -86 -456 -230 -634 -372 -167 -133 -373 -368 -479
-546 -32 -54 -48 -72 -79 -84 -70 -28 -89 -104 -39 -154 40 -40 82 -39 123 2
28 28 30 34 25 81 -6 48 -4 56 49 145 156 265 398 519 662 696 88 59 309 175
415 217 31 13 57 30 57 37 0 18 -3 17 -100 -22z"/>
<path d="M4974 8831 c-114 -14 -214 -32 -219 -41 -11 -18 16 -19 121 -5 444
59 947 -51 1329 -290 196 -123 410 -314 536 -480 192 -251 317 -532 379 -849
56 -289 54 -532 -7 -798 -24 -109 -26 -146 -4 -122 13 14 59 199 76 309 22
144 30 389 16 520 -63 576 -373 1087 -859 1414 -246 165 -542 282 -827 326
-117 18 -438 27 -541 16z"/>
<path d="M4906 8680 c-653 -75 -1222 -464 -1506 -1030 -147 -293 -208 -581
-197 -923 7 -201 33 -345 98 -532 131 -382 406 -731 768 -975 67 -45 278 -160
294 -160 5 0 7 87 4 208 -5 234 -12 272 -82 419 -52 111 -80 153 -206 308
-167 206 -256 373 -309 581 -119 464 34 989 393 1342 206 204 456 331 747 378
115 19 359 14 465 -9 343 -76 634 -262 841 -537 113 -149 212 -374 251 -568
22 -111 25 -413 4 -517 -48 -244 -164 -481 -327 -670 -99 -115 -157 -199 -203
-296 -47 -98 -67 -171 -81 -289 -11 -92 -14 -340 -4 -340 17 0 271 137 344
186 444 297 731 757 804 1292 20 145 20 384 0 521 -118 811 -740 1450 -1551
1592 -135 24 -419 33 -547 19z"/>
<path d="M6520 8542 c0 -5 39 -38 88 -74 113 -85 127 -100 113 -127 -19 -34
-12 -69 18 -103 26 -29 35 -33 75 -31 43 1 47 -1 99 -60 84 -96 140 -177 191
-276 47 -91 66 -116 66 -86 0 46 -135 292 -221 402 -40 52 -49 70 -49 104 0
57 -42 99 -99 99 -35 0 -54 10 -146 80 -96 73 -135 94 -135 72z"/>
<path d="M4610 8080 c-12 -8 -13 -13 -2 -30 6 -11 12 -38 12 -60 0 -29 4 -40
15 -40 13 0 15 12 13 67 -3 67 -11 80 -38 63z"/>
<path d="M4690 8071 c-31 -59 4 -146 49 -121 17 9 21 20 21 63 0 29 -5 58 -12
65 -18 18 -46 14 -58 -7z m45 -54 c0 -52 -19 -51 -23 2 -2 32 0 42 10 39 8 -3
13 -20 13 -41z"/>
<path d="M4806 8074 c-19 -19 -22 -104 -4 -122 44 -44 87 37 58 112 -11 30
-31 33 -54 10z m34 -58 c0 -19 -4 -37 -9 -41 -13 -7 -24 30 -16 55 10 32 25
23 25 -14z"/>
<path d="M4915 8076 c-17 -12 -18 -16 -5 -32 8 -9 15 -36 15 -58 0 -30 4 -41
15 -41 11 0 16 15 18 61 3 70 -11 93 -43 70z"/>
<path d="M5017 8072 c-21 -23 -21 -32 -2 -32 11 0 15 -12 15 -50 0 -38 4 -50
15 -50 12 0 15 15 15 75 0 80 -10 93 -43 57z"/>
<path d="M5130 8075 c-9 -11 -10 -22 -3 -38 5 -12 8 -39 5 -60 -4 -34 -2 -38
14 -35 17 3 19 13 18 73 -1 70 -11 88 -34 60z"/>
<path d="M5232 8078 c-15 -15 -16 -38 -2 -38 6 0 10 -22 10 -50 0 -38 4 -50
15 -50 13 0 15 12 13 72 -3 71 -13 89 -36 66z"/>
<path d="M5329 8074 c-11 -14 -11 -18 5 -29 13 -10 17 -24 14 -56 -2 -35 0
-44 15 -47 15 -3 17 5 17 56 0 33 -3 67 -6 76 -8 21 -28 20 -45 0z"/>
<path d="M5440 8075 c-10 -12 -10 -19 -2 -27 7 -7 12 -34 12 -60 0 -36 4 -48
15 -48 12 0 15 15 15 75 0 78 -11 95 -40 60z"/>
<path d="M5530 8070 c-6 -12 -10 -41 -8 -67 3 -53 26 -76 56 -57 21 13 29 108
11 130 -17 20 -47 17 -59 -6z m48 -60 c-5 -49 -28 -51 -28 -2 0 21 3 42 7 45
13 13 24 -11 21 -43z"/>
<path d="M5642 8078 c-7 -7 -12 -36 -12 -65 0 -62 21 -83 58 -57 30 21 32 108
3 124 -25 13 -34 13 -49 -2z m40 -48 c5 -34 -5 -56 -21 -46 -12 8 -14 35 -5
60 10 25 21 19 26 -14z"/>
<path d="M4516 8061 c-14 -16 -15 -23 -6 -41 6 -12 9 -29 6 -37 -7 -18 12 -46
25 -37 12 7 12 121 0 128 -4 3 -16 -3 -25 -13z"/>
<path d="M5763 7929 c4 -15 0 -30 -11 -42 -16 -18 -16 -20 2 -32 13 -10 17
-24 14 -51 -2 -31 1 -39 15 -42 17 -3 18 3 15 90 -3 81 -6 93 -22 96 -15 3
-18 0 -13 -19z"/>
<path d="M4407 7896 c-14 -21 -14 -26 -2 -36 10 -8 14 -27 13 -54 -2 -31 1
-41 12 -41 12 0 15 15 15 74 -1 80 -12 97 -38 57z"/>
<path d="M4609 7889 c-10 -25 -10 -34 -1 -37 7 -2 12 -22 12 -48 0 -33 4 -44
15 -44 13 0 15 13 13 77 -3 84 -17 103 -39 52z"/>
<path d="M4302 7898 c-14 -14 -16 -38 -3 -38 6 0 11 -21 13 -47 2 -27 8 -48
16 -51 10 -3 12 13 10 69 -3 72 -13 90 -36 67z"/>
<path d="M4512 7898 c-15 -15 -16 -38 -2 -38 6 0 10 -22 10 -50 0 -38 4 -50
15 -50 12 0 15 15 15 75 0 76 -9 92 -38 63z"/>
<path d="M4704 7889 c-17 -19 -18 -21 -1 -30 12 -7 17 -23 17 -54 0 -33 4 -45
15 -45 12 0 15 15 15 75 0 81 -10 93 -46 54z"/>
<path d="M4807 7892 c-38 -42 -3 -152 40 -126 12 8 19 26 21 57 5 75 -25 109
-61 69z m33 -63 c0 -24 -4 -38 -10 -34 -5 3 -10 22 -10 41 0 19 5 34 10 34 6
0 10 -18 10 -41z"/>
<path d="M4920 7895 c-11 -14 -11 -20 -1 -37 8 -13 10 -34 6 -60 -6 -35 -5
-39 11 -36 16 3 19 13 19 72 0 72 -11 90 -35 61z"/>
<path d="M5017 7883 c-9 -21 -9 -27 1 -31 7 -2 12 -22 12 -49 0 -37 3 -44 18
-41 9 2 17 11 16 21 0 9 -1 42 -2 72 -2 62 -23 75 -45 28z"/>
<path d="M5126 7888 c-15 -21 -15 -24 0 -35 11 -8 15 -23 12 -49 -2 -31 1 -39
15 -42 16 -3 18 4 15 69 -3 78 -16 95 -42 57z"/>
<path d="M5229 7889 c-8 -15 -8 -24 0 -32 6 -6 11 -30 11 -54 0 -32 4 -43 15
-43 12 0 15 15 15 75 0 59 -3 75 -15 75 -8 0 -19 -9 -26 -21z"/>
<path d="M5325 7894 c-24 -25 -17 -112 11 -131 33 -21 54 5 54 67 0 68 -30 98
-65 64z m43 -55 c3 -29 -12 -54 -27 -45 -12 8 -15 59 -4 70 12 12 28 0 31 -25z"/>
<path d="M5442 7898 c-15 -15 -16 -38 -2 -38 6 0 10 -22 10 -50 0 -36 4 -50
14 -50 20 0 24 17 18 88 -4 62 -15 75 -40 50z"/>
<path d="M5541 7889 c-11 -19 -11 -23 4 -31 12 -7 16 -21 13 -51 -2 -34 1 -42
15 -45 16 -3 18 4 15 70 -3 79 -20 99 -47 57z"/>
<path d="M5649 7883 c-11 -20 -11 -27 -1 -30 7 -3 12 -21 12 -44 0 -27 5 -42
15 -46 25 -9 27 0 19 76 -7 77 -21 90 -45 44z"/>
<path d="M5856 7897 c-13 -10 -17 -24 -14 -66 3 -61 24 -85 56 -65 24 15 29
105 7 128 -20 19 -26 20 -49 3z m34 -67 c0 -22 -4 -40 -9 -40 -14 0 -23 37
-16 60 11 34 25 22 25 -20z"/>
<path d="M5960 7805 c-11 -13 -11 -19 2 -32 17 -16 38 -10 38 11 0 8 -6 19
-14 25 -10 9 -16 8 -26 -4z"/>
<path d="M4207 7804 c-16 -16 -7 -44 14 -44 15 0 20 5 17 22 -3 22 -19 33 -31
22z"/>
<path d="M4195 7710 c-16 -18 -17 -23 -5 -30 10 -6 15 -25 15 -52 0 -33 4 -43
18 -46 15 -3 17 4 13 69 -2 40 -8 75 -13 76 -5 2 -18 -6 -28 -17z"/>
<path d="M4283 7718 c-46 -59 6 -175 55 -126 16 16 16 110 0 126 -16 16 -43
15 -55 0z m37 -64 c0 -32 -4 -44 -12 -42 -16 6 -22 32 -14 64 10 40 26 27 26
-22z"/>
<path d="M4391 7716 c-18 -22 -10 -117 12 -130 42 -26 73 50 48 117 -12 30
-41 36 -60 13z m39 -67 c0 -52 -24 -48 -28 4 -2 28 1 37 12 37 12 0 16 -11 16
-41z"/>
<path d="M4512 7718 c-15 -15 -16 -38 -2 -38 6 0 10 -22 10 -49 0 -51 11 -70
27 -48 12 15 1 139 -12 144 -6 2 -16 -2 -23 -9z"/>
<path d="M4608 7704 c-9 -19 -9 -27 -1 -32 7 -4 13 -27 15 -51 2 -25 8 -46 14
-48 17 -6 20 14 16 90 -4 73 -22 90 -44 41z"/>
<path d="M4709 7709 c-8 -15 -8 -24 0 -32 6 -6 11 -30 11 -53 0 -42 14 -65 29
-48 5 5 6 42 3 82 -4 76 -20 94 -43 51z"/>
<path d="M4816 7715 c-18 -18 -21 -45 -6 -45 6 0 10 -20 10 -45 0 -39 3 -45
20 -45 19 0 21 5 18 72 -3 75 -14 91 -42 63z"/>
<path d="M5015 7714 c-21 -22 -17 -112 6 -127 33 -21 49 -1 49 61 0 75 -21
100 -55 66z m35 -65 c0 -28 -4 -39 -12 -37 -24 8 -22 78 2 78 5 0 10 -18 10
-41z"/>
<path d="M5116 7708 c-20 -28 -21 -102 -2 -118 8 -6 25 -10 38 -8 20 3 23 9
26 55 5 83 -28 120 -62 71z m38 -36 c-1 -7 -2 -23 -2 -37 -2 -29 -19 -34 -24
-7 -6 28 4 63 16 59 6 -2 11 -9 10 -15z"/>
<path d="M5237 7719 c-18 -11 -24 -39 -7 -39 6 0 10 -23 10 -51 0 -43 3 -50
18 -47 14 3 17 15 19 65 2 67 -10 88 -40 72z"/>
<path d="M5337 7712 c-20 -22 -22 -39 -4 -45 7 -2 12 -20 12 -43 0 -28 4 -39
15 -39 12 0 14 13 12 65 -2 73 -11 88 -35 62z"/>
<path d="M5442 7718 c-15 -15 -16 -38 -2 -38 6 0 10 -23 10 -51 0 -43 3 -50
18 -47 9 2 17 11 16 21 0 9 -1 42 -2 72 -2 56 -14 69 -40 43z"/>
<path d="M5547 7703 c-9 -21 -9 -27 1 -31 7 -2 12 -22 12 -49 0 -37 3 -44 18
-41 14 3 16 13 13 68 -1 36 -5 68 -8 73 -9 14 -24 6 -36 -20z"/>
<path d="M5656 7708 c-12 -17 -13 -25 -3 -36 7 -8 12 -31 12 -51 0 -26 5 -37
18 -39 16 -3 17 4 13 70 -2 40 -5 74 -5 76 -3 9 -22 -2 -35 -20z"/>
<path d="M5762 7718 c-15 -15 -16 -45 -1 -53 6 -4 9 -23 7 -43 -2 -28 1 -37
15 -40 16 -3 17 4 14 69 -2 72 -12 90 -35 67z"/>
<path d="M5851 7716 c-32 -38 -17 -127 22 -134 30 -6 47 17 47 62 0 66 -40
107 -69 72z m39 -67 c0 -28 -4 -39 -12 -37 -24 8 -22 78 2 78 5 0 10 -18 10
-41z"/>
<path d="M5959 7709 c-8 -15 -8 -24 0 -32 6 -6 11 -31 11 -55 0 -36 3 -43 18
-40 9 2 17 9 16 16 -1 6 -2 39 -2 72 -2 45 -6 60 -17 60 -8 0 -19 -9 -26 -21z"/>
<path d="M4915 7699 c-4 -12 -2 -24 3 -28 6 -3 12 -25 14 -49 5 -70 23 -53 26
26 3 66 1 72 -17 72 -11 0 -23 -9 -26 -21z"/>
<path d="M4107 7703 c-11 -18 6 -133 19 -133 20 0 22 11 15 74 -5 54 -21 80
-34 59z"/>
<path d="M6052 7698 c-16 -16 -15 -28 3 -28 11 0 15 -12 15 -44 0 -45 14 -66
32 -48 6 6 6 32 1 68 -8 60 -25 78 -51 52z"/>
<path d="M4302 7529 c-10 -15 -11 -24 -3 -32 6 -6 11 -33 11 -60 0 -41 3 -48
17 -45 29 5 22 158 -7 158 -3 0 -11 -10 -18 -21z"/>
<path d="M4405 7524 c-16 -25 -16 -28 -1 -36 10 -6 16 -22 16 -48 0 -39 14
-60 30 -44 12 12 -2 147 -16 151 -6 2 -19 -8 -29 -23z"/>
<path d="M4811 7531 c-18 -18 -21 -32 -19 -74 3 -52 3 -52 38 -52 35 0 35 0
35 57 0 40 -6 63 -17 74 -15 15 -18 14 -37 -5z m29 -67 c0 -24 -4 -34 -12 -32
-24 8 -22 68 2 68 5 0 10 -16 10 -36z"/>
<path d="M4916 7531 c-15 -17 -15 -19 -1 -31 12 -10 16 -27 13 -59 -2 -37 0
-46 15 -49 15 -3 17 5 17 66 0 79 -15 105 -44 73z"/>
<path d="M5238 7539 c-19 -10 -25 -39 -9 -39 6 0 11 -24 13 -52 2 -39 7 -53
18 -53 12 0 14 13 12 70 -4 78 -9 88 -34 74z"/>
<path d="M5437 7533 c-8 -10 -18 -35 -22 -56 -9 -47 15 -90 48 -85 20 3 22 10
25 66 4 83 -17 112 -51 75z m31 -74 c-2 -19 -7 -33 -13 -32 -12 3 -19 49 -10
71 10 26 27 -2 23 -39z"/>
<path d="M5540 7530 c-42 -42 -9 -162 37 -134 14 8 19 26 21 72 3 53 0 62 -17
72 -17 8 -25 6 -41 -10z m30 -60 c0 -22 -4 -40 -9 -40 -14 0 -23 37 -16 60 11
34 25 22 25 -20z"/>
<path d="M5657 7526 c-12 -18 -13 -26 -4 -35 7 -7 12 -31 12 -54 0 -31 4 -42
15 -42 16 0 24 73 14 128 -7 33 -17 34 -37 3z"/>
<path d="M5758 7524 c-10 -22 -10 -28 0 -32 7 -2 12 -23 12 -54 0 -35 4 -48
13 -45 17 5 17 149 0 154 -7 3 -18 -8 -25 -23z"/>
<path d="M5856 7525 c-15 -23 -15 -26 -1 -31 10 -4 15 -20 15 -50 0 -32 4 -44
15 -44 12 0 15 13 15 59 0 92 -14 112 -44 66z"/>
<path d="M5964 7529 c-18 -20 -18 -21 -1 -34 13 -9 17 -24 15 -56 -2 -34 1
-44 12 -44 17 0 26 68 15 122 -7 38 -15 41 -41 12z"/>
<path d="M4000 7525 c-10 -12 -11 -20 -1 -38 7 -13 11 -36 9 -52 -2 -22 2 -30
15 -33 16 -3 18 3 14 64 -3 69 -14 87 -37 59z"/>
<path d="M4080 7521 c-25 -48 0 -131 39 -131 38 0 52 97 20 137 -16 19 -47 16
-59 -6z m48 -62 c-2 -19 -7 -33 -13 -32 -12 3 -19 49 -10 71 10 26 27 -2 23
-39z"/>
<path d="M4200 7525 c-10 -12 -10 -19 -2 -27 7 -7 12 -34 12 -60 0 -36 4 -48
15 -48 12 0 15 15 15 75 0 78 -11 95 -40 60z"/>
<path d="M4510 7521 c-7 -13 -7 -22 0 -26 5 -3 10 -29 10 -56 0 -43 3 -50 18
-47 9 2 17 9 16 16 -1 6 -2 39 -2 72 -2 45 -6 60 -17 60 -8 0 -19 -9 -25 -19z"/>
<path d="M4612 7528 c-15 -15 -16 -38 -2 -38 6 0 10 -22 10 -50 0 -36 4 -50
14 -50 20 0 22 10 18 85 -4 65 -14 79 -40 53z"/>
<path d="M4706 7523 c-4 -9 -2 -21 4 -27 5 -5 10 -32 10 -58 0 -36 4 -48 15
-48 12 0 15 15 15 75 0 67 -2 75 -19 75 -10 0 -22 -8 -25 -17z"/>
<path d="M5000 7521 c-30 -57 6 -151 48 -125 21 13 29 108 11 130 -16 20 -46
17 -59 -5z m48 -53 c-4 -40 -24 -47 -31 -11 -6 33 -1 43 19 43 11 0 14 -9 12
-32z"/>
<path d="M5110 7521 c-15 -30 -12 -97 6 -115 34 -35 64 -11 64 52 0 53 -14 82
-40 82 -11 0 -24 -9 -30 -19z m46 -45 c6 -26 -1 -46 -17 -46 -5 0 -9 16 -9 35
0 40 17 47 26 11z"/>
<path d="M5316 7524 c-11 -28 -6 -100 7 -118 7 -10 22 -17 33 -14 22 4 36 63
27 116 -4 27 -9 32 -33 32 -16 0 -30 -7 -34 -16z m44 -55 c0 -28 -4 -39 -12
-37 -24 8 -22 78 2 78 5 0 10 -18 10 -41z"/>
<path d="M6066 7524 c-4 -10 -2 -22 4 -28 5 -5 10 -32 10 -58 0 -35 4 -48 14
-48 20 0 22 11 16 82 -4 47 -9 64 -21 66 -9 2 -19 -5 -23 -14z"/>
<path d="M6169 7514 c-11 -13 -11 -18 -1 -21 7 -3 12 -22 12 -48 0 -46 11 -63
28 -42 13 15 1 119 -14 124 -6 2 -17 -4 -25 -13z"/>
<path d="M3106 7353 c-111 -335 -125 -712 -40 -1048 136 -534 511 -998 1012
-1249 83 -41 285 -122 331 -131 69 -15 24 18 -89 64 -501 203 -907 615 -1116
1129 -150 370 -181 835 -79 1193 13 47 27 94 31 103 4 10 1 16 -9 16 -10 0
-24 -26 -41 -77z"/>
<path d="M4805 7343 c-16 -24 -16 -27 -1 -38 10 -8 16 -27 16 -54 0 -28 4 -41
14 -41 15 0 25 64 18 123 -5 44 -23 48 -47 10z"/>
<path d="M5855 7356 c-22 -16 -29 -84 -13 -116 19 -35 51 -38 66 -5 31 68 -7
155 -53 121z m35 -61 c0 -32 -10 -56 -21 -49 -10 6 -12 67 -3 77 12 11 24 -3
24 -28z"/>
<path d="M3992 7348 c-14 -14 -16 -38 -3 -38 6 0 11 -21 13 -47 5 -74 23 -57
26 25 3 74 -6 90 -36 60z"/>
<path d="M4080 7341 c-27 -51 5 -143 44 -128 35 13 43 98 14 135 -15 18 -46
15 -58 -7z m50 -57 c0 -24 -5 -34 -15 -34 -10 0 -15 10 -15 33 0 19 3 37 6 40
13 13 24 -5 24 -39z"/>
<path d="M4193 7344 c-3 -8 -1 -20 6 -27 6 -6 11 -33 11 -59 0 -36 4 -48 15
-48 12 0 15 15 15 75 0 69 -2 75 -20 75 -11 0 -23 -7 -27 -16z"/>
<path d="M4295 7340 c-16 -18 -16 -20 -1 -26 12 -4 16 -19 16 -54 0 -27 4 -51
9 -54 14 -9 32 20 27 45 -3 13 -5 43 -5 67 -1 47 -16 55 -46 22z"/>
<path d="M4401 7341 c-15 -26 -14 -31 5 -31 13 0 15 -9 12 -47 -2 -39 0 -48
15 -51 16 -3 18 4 15 70 -2 59 -6 73 -20 76 -9 2 -21 -6 -27 -17z"/>
<path d="M4506 7338 c-15 -21 -15 -23 3 -30 16 -5 18 -14 14 -52 -5 -42 -4
-46 16 -46 18 0 21 6 21 38 0 101 -22 137 -54 90z"/>
<path d="M4606 7341 c-15 -17 -16 -20 -2 -28 9 -5 16 -26 18 -57 2 -29 8 -51
16 -54 10 -3 12 14 10 74 -3 82 -13 97 -42 65z"/>
<path d="M4709 7339 c-8 -15 -8 -24 0 -32 6 -6 11 -31 11 -55 0 -34 3 -43 16
-40 8 2 15 6 15 11 -1 4 -1 36 -1 72 0 50 -3 65 -15 65 -8 0 -19 -9 -26 -21z"/>
<path d="M4911 7339 c-11 -19 -11 -23 4 -31 12 -7 16 -21 13 -51 -2 -34 1 -42
15 -45 16 -3 18 4 15 70 -3 79 -20 99 -47 57z"/>
<path d="M5014 7339 c-18 -20 -18 -22 -1 -51 9 -16 17 -41 17 -54 0 -15 6 -24
15 -24 12 0 15 15 15 75 0 81 -10 93 -46 54z"/>
<path d="M5114 7335 c-11 -18 -15 -37 -11 -62 14 -83 70 -83 75 0 5 79 -30
113 -64 62z m41 -50 c0 -16 -6 -30 -12 -32 -9 -3 -13 7 -13 32 0 25 4 35 13
33 6 -3 12 -17 12 -33z"/>
<path d="M5224 7347 c-3 -9 -1 -24 5 -36 6 -11 11 -38 11 -60 0 -30 4 -41 15
-41 25 0 17 143 -8 148 -9 2 -20 -3 -23 -11z"/>
<path d="M5329 7340 c-22 -18 -23 -21 -7 -33 9 -7 18 -31 20 -53 2 -27 8 -39
18 -39 12 0 14 13 12 65 -2 36 -7 69 -11 73 -4 4 -19 -1 -32 -13z"/>
<path d="M5437 7342 c-21 -23 -22 -42 -2 -42 11 0 15 -12 15 -45 0 -34 4 -45
15 -45 13 0 15 12 13 72 -3 75 -14 91 -41 60z"/>
<path d="M5539 7339 c-9 -18 -9 -24 4 -34 9 -6 17 -30 19 -53 5 -71 23 -47 23
30 0 60 -3 73 -17 76 -9 2 -22 -7 -29 -19z"/>
<path d="M5652 7348 c-15 -15 -16 -38 -2 -38 6 0 10 -20 10 -44 0 -26 6 -48
15 -56 21 -17 26 0 22 80 -3 67 -17 86 -45 58z"/>
<path d="M5752 7339 c-11 -17 -11 -23 0 -36 7 -9 13 -32 13 -52 0 -26 5 -36
18 -39 15 -3 17 5 15 72 -2 61 -5 76 -18 76 -8 0 -21 -9 -28 -21z"/>
<path d="M5956 7343 c-4 -9 -2 -21 4 -27 5 -5 10 -32 10 -58 0 -35 4 -48 14
-48 23 0 26 13 19 84 -5 54 -9 66 -23 66 -10 0 -21 -8 -24 -17z"/>
<path d="M6064 7339 c-17 -19 -18 -21 -1 -30 11 -7 17 -22 17 -49 0 -21 4 -41
9 -44 18 -11 27 21 23 82 -4 67 -15 77 -48 41z"/>
<path d="M6169 7344 c-10 -12 -10 -20 -1 -35 7 -10 12 -34 12 -53 0 -37 9 -49
28 -37 8 5 10 27 5 74 -6 69 -18 82 -44 51z"/>
<path d="M6270 7335 c-11 -13 -10 -18 4 -28 11 -8 16 -23 14 -47 -2 -26 1 -35
15 -38 16 -3 18 3 15 60 -3 67 -21 86 -48 53z"/>
<path d="M2870 7243 c-29 -103 -52 -280 -57 -448 -6 -180 -6 -180 -34 -213
-38 -43 -38 -84 -1 -121 15 -15 33 -30 39 -32 7 -2 26 -51 42 -109 34 -121
107 -317 122 -326 22 -13 20 9 -10 93 -41 112 -81 265 -81 309 0 20 9 48 22
65 34 45 30 95 -11 131 -33 29 -34 32 -42 141 -10 126 2 324 26 435 8 40 15
82 15 93 0 32 -18 21 -30 -18z"/>
<path d="M3992 7168 c-16 -16 -15 -35 2 -41 10 -4 12 -18 8 -52 -4 -42 -3 -47
14 -43 23 4 28 26 19 94 -6 54 -19 66 -43 42z"/>
<path d="M4095 7160 c-16 -18 -16 -20 -1 -26 12 -4 16 -19 16 -55 0 -38 4 -49
15 -49 13 0 15 12 13 72 -3 76 -14 91 -43 58z"/>
<path d="M4200 7165 c-11 -13 -11 -21 -2 -36 7 -10 12 -37 12 -60 0 -28 4 -39
13 -36 8 2 12 26 12 72 0 71 -11 89 -35 60z"/>
<path d="M4308 7169 c-19 -11 -25 -39 -8 -39 6 0 10 -19 10 -43 0 -48 5 -58
25 -51 10 4 12 22 9 66 -4 69 -11 81 -36 67z"/>
<path d="M4410 7165 c-11 -13 -11 -20 0 -40 7 -13 10 -35 8 -49 -6 -30 14 -53
29 -34 12 17 1 130 -13 135 -6 2 -17 -3 -24 -12z"/>
<path d="M4512 7168 c-15 -15 -16 -38 -2 -38 6 0 10 -20 10 -45 0 -33 4 -45
14 -45 22 0 25 10 17 74 -6 61 -17 76 -39 54z"/>
<path d="M4600 7165 c-20 -24 -18 -101 3 -122 13 -14 21 -15 35 -7 23 15 24
120 2 134 -20 13 -26 12 -40 -5z m30 -60 c0 -19 -4 -35 -10 -35 -11 0 -14 53
-3 63 11 12 13 8 13 -28z"/>
<path d="M4710 7165 c-10 -12 -10 -19 -2 -27 7 -7 12 -34 12 -60 0 -36 4 -48
15 -48 12 0 15 14 17 60 0 33 1 66 2 72 2 19 -29 21 -44 3z"/>
<path d="M4806 7164 c-24 -23 -18 -112 7 -128 15 -9 22 -7 38 13 22 27 24 65
6 100 -16 32 -31 36 -51 15z m34 -59 c0 -34 -12 -46 -25 -24 -9 14 3 59 15 59
6 0 10 -16 10 -35z"/>
<path d="M4910 7165 c-10 -12 -10 -18 1 -32 8 -9 14 -35 14 -57 0 -30 4 -41
15 -41 19 0 26 94 10 125 -13 24 -23 25 -40 5z"/>
<path d="M5022 7168 c-15 -15 -16 -38 -2 -38 6 0 10 -20 10 -44 0 -47 13 -67
27 -42 11 20 1 128 -12 133 -6 2 -16 -2 -23 -9z"/>
<path d="M5232 7168 c-15 -15 -16 -38 -2 -38 6 0 10 -21 10 -46 0 -38 3 -45
18 -42 14 3 16 12 13 63 -4 78 -12 90 -39 63z"/>
<path d="M5332 7168 c-16 -16 -15 -35 1 -41 7 -2 12 -22 12 -48 0 -32 4 -44
15 -44 22 0 22 138 0 143 -9 1 -21 -3 -28 -10z"/>
<path d="M5442 7168 c-15 -15 -16 -38 -2 -38 6 0 10 -20 10 -45 0 -33 4 -45
15 -45 12 0 15 14 15 70 0 71 -10 86 -38 58z"/>
<path d="M5537 7162 c-10 -11 -17 -35 -17 -60 0 -33 5 -45 25 -58 37 -24 55
-5 55 60 0 72 -28 97 -63 58z m33 -63 c0 -24 -4 -38 -10 -34 -5 3 -10 22 -10
41 0 19 5 34 10 34 6 0 10 -18 10 -41z"/>
<path d="M5655 7165 c-20 -15 -20 -15 -1 -29 14 -12 17 -23 12 -48 -7 -38 4
-61 22 -49 16 10 13 133 -3 138 -6 2 -20 -4 -30 -12z"/>
<path d="M5755 7160 c-4 -12 -2 -27 4 -33 6 -6 11 -28 11 -49 0 -28 4 -38 15
-38 24 0 17 133 -7 138 -10 2 -19 -5 -23 -18z"/>
<path d="M5862 7168 c-15 -15 -15 -35 0 -40 8 -3 11 -20 10 -45 -4 -44 9 -61
27 -39 9 10 10 32 4 72 -8 59 -20 73 -41 52z"/>
<path d="M5959 7164 c-11 -14 -11 -18 5 -30 14 -10 17 -21 13 -48 -4 -24 -1
-39 9 -47 20 -16 26 5 22 77 -3 63 -21 81 -49 48z"/>
<path d="M6069 7164 c-10 -12 -10 -20 -1 -35 7 -10 12 -34 12 -53 0 -35 17
-57 29 -38 3 5 4 40 3 76 -4 68 -16 83 -43 50z"/>
<path d="M6159 7164 c-17 -21 -18 -87 0 -108 7 -9 24 -16 37 -16 18 0 24 7 28
33 9 50 -6 101 -30 105 -12 2 -27 -5 -35 -14z m41 -60 c0 -24 -4 -34 -12 -32
-15 5 -22 42 -14 64 10 25 26 5 26 -32z"/>
<path d="M6260 7155 c-12 -32 1 -105 21 -118 28 -17 47 -1 54 45 9 59 -7 98
-40 98 -18 0 -28 -7 -35 -25z m48 -56 c-2 -19 -7 -33 -13 -32 -12 3 -19 49
-10 71 10 26 27 -2 23 -39z"/>
<path d="M3897 7164 c-8 -8 4 -117 14 -128 20 -22 31 12 24 73 -6 56 -19 74
-38 55z"/>
<path d="M5124 7156 c-3 -8 -2 -21 3 -28 4 -7 8 -29 8 -48 0 -25 5 -35 18 -38
16 -3 18 3 15 60 -2 50 -6 63 -21 66 -9 2 -20 -3 -23 -12z"/>
<path d="M4478 7013 c-5 -18 -13 -23 -41 -23 -20 0 -38 -4 -41 -9 -3 -5 8 -41
24 -81 34 -83 39 -110 15 -90 -42 35 -67 -87 -25 -125 27 -24 50 -5 50 41 0
50 14 42 44 -25 31 -70 31 -66 6 -91 -23 -23 -25 -43 -9 -89 7 -20 18 -31 30
-31 23 0 26 25 4 34 -19 7 -21 80 -3 74 15 -5 27 -36 119 -305 60 -176 67
-205 57 -228 -10 -21 -9 -27 7 -39 12 -9 16 -20 12 -35 -3 -14 0 -24 8 -27 17
-7 28 -42 50 -154 9 -47 23 -118 32 -157 8 -41 12 -85 8 -100 -3 -16 -8 -44
-10 -63 -4 -31 -3 -32 5 -10 8 22 9 20 6 -15 -1 -21 4 -52 12 -69 14 -28 14
-31 -6 -44 -18 -12 -22 -24 -22 -63 0 -44 3 -51 25 -59 34 -13 35 -57 3 -62
-31 -4 -46 -63 -27 -103 16 -33 48 -50 34 -19 -14 33 -18 91 -5 99 6 4 13 5
15 3 2 -2 7 -68 11 -146 7 -142 7 -142 -161 -142 -167 0 -167 0 -201 -34 -27
-27 -34 -42 -34 -74 0 -44 34 -96 70 -107 29 -9 24 -22 -10 -28 -62 -13 -82
-117 -32 -167 34 -34 26 -33 447 -56 171 -9 405 -22 520 -28 116 -6 223 -10
238 -8 32 5 67 52 67 90 0 32 -48 78 -96 91 -21 6 -240 25 -486 41 -662 45
-664 47 -40 49 375 1 560 4 574 12 11 6 26 26 34 45 12 29 12 38 -2 74 -28 70
-65 84 -233 89 -144 3 -144 3 -138 260 8 315 45 638 82 729 8 19 12 38 9 43
-12 20 57 293 82 325 13 18 14 15 12 -31 -2 -39 0 -50 12 -50 12 0 14 11 11
55 -2 30 -8 58 -14 62 -8 4 -3 33 15 90 15 46 30 94 33 108 4 14 18 44 31 67
13 22 30 66 38 95 16 63 56 151 71 155 6 2 9 -15 7 -42 -3 -37 -1 -45 13 -45
15 0 16 8 11 63 -3 34 -6 69 -6 77 -2 24 64 153 75 149 6 -2 10 -26 10 -54 0
-38 4 -50 15 -50 12 0 16 15 18 68 3 75 -9 91 -52 67 -14 -7 -33 -9 -47 -4
-13 4 -49 7 -80 7 -45 1 -60 -4 -78 -22 -19 -19 -21 -25 -10 -32 12 -7 10 -15
-6 -46 -20 -38 -20 -38 -280 -36 -143 1 -365 2 -492 3 -233 0 -233 0 -249 25
-9 14 -22 42 -29 63 -12 34 -17 37 -53 40 -33 3 -41 7 -44 25 -3 22 -3 22 -10
0z m-30 -260 c-3 -41 -23 -55 -33 -24 -9 28 3 61 21 61 11 0 14 -9 12 -37z
m1077 -104 c9 -13 -3 -59 -14 -59 -5 0 -11 9 -14 20 -8 30 -45 26 -57 -6 -16
-40 -12 -72 11 -95 25 -25 22 -65 -4 -62 -15 1 -17 -4 -12 -24 6 -26 -28 -165
-50 -199 -8 -12 -17 -45 -21 -74 -4 -28 -12 -57 -19 -64 -7 -7 -13 -28 -13
-47 0 -44 -31 -180 -45 -197 -6 -7 -11 -36 -13 -65 -5 -109 -29 -239 -47 -248
-13 -8 -17 -22 -15 -57 1 -40 2 -42 5 -12 5 39 23 66 23 35 0 -11 -5 -60 -11
-110 -6 -49 -12 -189 -13 -310 -1 -220 -1 -220 -93 -223 -93 -3 -93 -3 -93 91
0 59 4 97 12 105 14 14 11 101 -4 119 -5 7 -7 25 -4 40 14 68 15 137 2 147 -8
6 -18 47 -24 91 -6 44 -22 148 -37 230 -15 83 -29 164 -31 180 -2 17 -7 45
-10 63 -4 20 -2 32 5 32 7 0 11 25 11 71 0 52 -3 70 -12 66 -9 -3 -12 -23 -9
-68 2 -35 0 -61 -4 -57 -10 10 -75 262 -71 275 3 6 -2 17 -10 23 -19 17 -18
36 6 60 39 39 14 172 -26 139 -19 -16 -19 -50 1 -43 12 5 15 -3 15 -35 0 -90
-32 -35 -81 139 -17 58 -34 109 -40 115 -5 5 -9 13 -9 17 0 13 808 10 815 -3z
m-35 -90 c0 -28 -4 -39 -12 -37 -24 8 -22 78 2 78 5 0 10 -18 10 -41z m-640
-1275 c0 -19 -4 -34 -10 -34 -5 0 -10 18 -10 41 0 24 4 38 10 34 6 -3 10 -22
10 -41z"/>
<path d="M5025 6620 c-13 -14 -15 -23 -7 -32 6 -7 12 -31 14 -53 2 -29 8 -41
21 -43 16 -3 17 3 11 65 -8 80 -14 91 -39 63z"/>
<path d="M4813 6614 c-3 -9 -2 -24 4 -33 6 -9 8 -31 5 -50 -4 -28 -2 -32 14
-29 23 4 28 27 19 84 -6 45 -29 60 -42 28z"/>
<path d="M4916 6614 c-4 -10 -2 -22 4 -28 5 -5 10 -29 10 -53 0 -32 4 -43 15
-43 24 0 17 133 -6 138 -9 2 -19 -5 -23 -14z"/>
<path d="M5130 6615 c-11 -13 -11 -21 -2 -36 7 -10 12 -35 12 -54 0 -25 4 -35
15 -35 13 0 15 12 13 67 -3 68 -15 86 -38 58z"/>
<path d="M5230 6615 c-10 -12 -10 -19 -2 -27 7 -7 12 -31 12 -55 0 -32 4 -43
15 -43 12 0 15 14 15 70 0 73 -12 89 -40 55z"/>
<path d="M5325 6613 c-3 -10 -1 -19 4 -21 6 -2 11 -26 11 -53 0 -36 4 -49 14
-49 24 0 27 16 20 80 -5 48 -10 60 -24 60 -10 0 -21 -8 -25 -17z"/>
<path d="M4915 6440 c-4 -11 -2 -27 5 -35 6 -7 10 -31 9 -54 -2 -22 0 -44 4
-48 17 -16 28 19 25 83 -2 55 -6 69 -20 72 -10 2 -19 -5 -23 -18z"/>
<path d="M5019 6433 c-11 -20 -11 -27 -1 -30 6 -3 12 -21 12 -41 0 -46 14 -72
30 -56 15 15 2 154 -15 154 -6 0 -18 -12 -26 -27z"/>
<path d="M5127 6442 c-21 -23 -22 -42 -2 -42 11 0 15 -12 15 -45 0 -34 4 -45
15 -45 13 0 15 12 13 72 -3 75 -14 91 -41 60z"/>
<path d="M5226 6435 c-15 -23 -15 -26 -1 -31 10 -4 15 -20 15 -51 0 -37 3 -44
18 -41 9 2 17 9 16 16 -1 6 -2 39 -2 72 -2 67 -18 79 -46 35z"/>
<path d="M5326 6444 c-34 -33 -13 -134 28 -134 24 0 36 25 36 75 0 69 -28 95
-64 59z m42 -62 c2 -24 -1 -32 -12 -32 -12 0 -16 10 -16 36 0 45 24 42 28 -4z"/>
<path d="M5232 6268 c-15 -15 -16 -38 -2 -38 6 0 10 -25 10 -55 0 -43 3 -55
15 -55 13 0 15 13 13 77 -3 76 -12 95 -36 71z"/>
<path d="M5334 6272 c-16 -10 -34 -48 -34 -71 0 -31 21 -71 38 -71 10 0 12 5
6 18 -4 9 -8 33 -8 52 -1 28 3 34 17 32 20 -3 22 8 5 31 -7 9 -18 13 -24 9z"/>
<path d="M4915 6260 c-3 -5 -1 -18 5 -29 5 -11 10 -40 10 -65 0 -34 4 -46 15
-46 12 0 15 15 15 75 0 68 -2 75 -19 75 -11 0 -23 -4 -26 -10z"/>
<path d="M5012 6258 c-6 -6 -12 -33 -12 -59 0 -81 56 -109 74 -37 18 71 -23
135 -62 96z m38 -64 c0 -24 -4 -34 -12 -32 -24 8 -22 68 2 68 5 0 10 -16 10
-36z"/>
<path d="M5115 6247 c-4 -13 -5 -46 -3 -73 3 -42 6 -49 26 -52 13 -2 30 2 38
8 17 15 19 79 2 115 -15 33 -55 35 -63 2z m45 -58 c0 -28 -4 -39 -12 -37 -24
8 -22 78 2 78 5 0 10 -18 10 -41z"/>
<path d="M5016 6075 c-20 -20 -21 -35 -2 -35 11 0 16 -14 18 -50 5 -77 23 -60
23 22 0 75 -10 91 -39 63z"/>
<path d="M5116 6068 c-14 -20 -14 -23 -1 -31 10 -5 15 -23 15 -52 0 -43 14
-65 30 -49 12 13 -3 147 -17 151 -6 2 -18 -6 -27 -19z"/>
<path d="M5227 6072 c-21 -23 -22 -42 -3 -42 11 0 16 -14 18 -47 5 -76 23 -56
26 30 3 82 -7 97 -41 59z"/>
<path d="M5215 5876 c-8 -19 -15 -40 -15 -45 0 -21 24 -61 36 -61 21 0 28 22
10 32 -16 9 -22 49 -9 61 3 4 13 1 20 -5 12 -10 14 -7 11 17 -5 45 -35 45 -53
1z"/>
<path d="M4996 5884 c-10 -27 -7 -99 6 -112 17 -17 55 -15 62 4 10 27 7 99 -6
112 -17 17 -55 15 -62 -4z m44 -54 c0 -22 -4 -40 -9 -40 -12 0 -25 56 -16 70
13 22 25 8 25 -30z"/>
<path d="M5122 5888 c-7 -7 -8 -16 -2 -22 5 -6 10 -32 12 -56 2 -32 8 -46 19
-48 14 -3 16 8 15 68 -1 56 -4 70 -16 70 -9 0 -21 -5 -28 -12z"/>
<path d="M5021 5716 c-7 -9 -9 -21 -5 -28 5 -7 11 -33 14 -57 3 -25 11 -46 18
-49 10 -3 12 13 10 69 -3 73 -14 93 -37 65z"/>
<path d="M5122 5706 c-7 -16 -8 -28 -2 -31 6 -4 10 -24 10 -45 0 -40 14 -60
32 -42 13 13 -3 134 -18 139 -6 2 -16 -8 -22 -21z"/>
<path d="M5230 5706 c0 -9 5 -16 10 -16 6 0 10 4 10 9 0 6 -4 13 -10 16 -5 3
-10 -1 -10 -9z"/>
<path d="M5121 5528 c-10 -16 -10 -23 -2 -26 6 -2 11 -23 11 -47 0 -43 14 -66
29 -49 5 5 6 39 3 77 -5 71 -17 84 -41 45z"/>
<path d="M5025 5531 c-3 -6 -1 -20 5 -32 7 -12 9 -36 5 -56 -5 -27 -3 -34 7
-31 17 6 18 120 1 125 -6 2 -14 -1 -18 -6z"/>
<path d="M5120 5344 c-10 -18 -11 -27 -3 -32 7 -4 13 -27 15 -51 3 -44 20 -65
31 -38 3 7 3 43 0 80 -6 72 -20 85 -43 41z"/>
<path d="M5127 5172 c-19 -21 -22 -42 -7 -42 6 0 10 -23 10 -51 0 -43 3 -50
18 -47 9 2 17 11 16 21 0 9 -1 44 -2 77 -2 63 -9 71 -35 42z"/>
<path d="M4312 6998 c-15 -15 -16 -45 -1 -53 6 -5 8 -22 4 -47 -6 -35 -5 -39
11 -36 16 3 19 13 19 72 0 69 -9 88 -33 64z"/>
<path d="M5026 6985 c-16 -25 -16 -28 -1 -45 9 -10 15 -23 12 -27 -8 -12 10
-39 19 -30 10 9 5 110 -5 120 -4 4 -16 -4 -25 -18z"/>
<path d="M5134 6989 c-15 -17 -16 -24 -6 -39 7 -11 12 -31 12 -45 0 -16 6 -25
15 -25 12 0 15 13 15 59 0 67 -9 80 -36 50z"/>
<path d="M5234 6985 c-11 -18 -13 -29 -6 -38 5 -6 12 -23 14 -36 1 -14 9 -26
16 -29 9 -3 12 13 12 57 0 68 -12 83 -36 46z"/>
<path d="M5354 7002 c-6 -4 -16 -17 -22 -29 -9 -17 -9 -22 3 -27 9 -3 15 -18
15 -36 0 -20 5 -30 15 -30 11 0 15 12 15 53 0 56 -9 80 -26 69z"/>
<path d="M6075 6986 c-12 -19 -14 -30 -7 -39 6 -7 12 -30 14 -52 2 -27 8 -40
18 -40 12 0 14 13 12 70 -4 82 -14 97 -37 61z"/>
<path d="M6174 6985 c-16 -25 -16 -28 -2 -39 11 -8 14 -21 11 -39 -7 -37 2
-58 23 -50 14 5 16 16 11 71 -8 79 -19 94 -43 57z"/>
<path d="M3891 6986 c-9 -11 -9 -20 -2 -35 6 -11 11 -38 11 -60 0 -30 4 -41
15 -41 12 0 15 15 15 75 0 57 -3 75 -14 75 -7 0 -19 -6 -25 -14z"/>
<path d="M3981 6986 c-18 -22 -10 -117 11 -130 42 -26 78 68 48 125 -13 22
-43 25 -59 5z m39 -56 c0 -38 -12 -52 -25 -30 -9 14 4 70 16 70 5 0 9 -18 9
-40z"/>
<path d="M4086 6978 c-30 -42 -10 -128 29 -128 26 0 45 31 45 71 0 74 -41 105
-74 57z m42 -50 c-3 -47 -21 -55 -26 -12 -4 31 4 54 18 54 7 0 10 -17 8 -42z"/>
<path d="M4196 6983 c-4 -9 -2 -21 4 -27 5 -5 10 -32 10 -58 0 -34 4 -48 14
-48 17 0 28 106 14 133 -11 22 -34 22 -42 0z"/>
<path d="M4613 6984 c-3 -9 -1 -25 5 -35 7 -10 12 -28 12 -39 0 -11 5 -20 10
-20 6 0 10 25 10 55 0 43 -3 55 -15 55 -9 0 -18 -7 -22 -16z"/>
<path d="M4712 6976 c-9 -19 -8 -27 4 -36 8 -7 14 -23 14 -36 0 -26 15 -32 23
-11 3 7 3 34 0 60 -6 52 -23 61 -41 23z"/>
<path d="M4810 6974 c-13 -23 -12 -27 3 -35 9 -6 17 -21 17 -34 0 -27 14 -34
23 -12 9 23 -5 107 -18 107 -6 0 -18 -12 -25 -26z"/>
<path d="M4920 6985 c-11 -13 -11 -21 -2 -36 7 -10 12 -30 12 -44 0 -16 6 -25
15 -25 13 0 15 11 13 57 -3 59 -16 75 -38 48z"/>
<path d="M5436 6981 c-15 -17 -16 -20 -3 -28 9 -4 17 -21 19 -37 3 -31 22 -46
30 -24 2 7 3 34 0 61 -4 51 -18 59 -46 28z"/>
<path d="M5540 6979 c-9 -16 -8 -24 4 -38 9 -10 16 -27 16 -39 0 -24 15 -37
25 -22 4 6 3 35 0 65 -8 59 -25 72 -45 34z"/>
<path d="M5970 6985 c-10 -12 -10 -19 -2 -27 7 -7 12 -34 12 -61 0 -34 4 -47
13 -45 19 7 23 148 4 148 -8 0 -20 -7 -27 -15z"/>
<path d="M6274 6979 c-18 -20 -18 -21 -1 -31 14 -7 18 -19 15 -46 -2 -28 1
-37 15 -40 15 -3 17 5 17 67 0 77 -11 89 -46 50z"/>
<path d="M7339 6961 c-40 -41 -40 -90 1 -133 28 -29 30 -35 30 -114 0 -127
-19 -277 -50 -399 -16 -60 -32 -118 -35 -127 -5 -12 -2 -18 8 -18 35 0 118
338 133 540 6 85 10 98 35 128 38 44 38 84 0 123 -20 20 -39 29 -61 29 -22 0
-41 -9 -61 -29z"/>
<path d="M4307 6812 c-19 -21 -22 -42 -7 -42 6 0 10 -22 10 -50 0 -43 3 -50
20 -50 19 0 20 4 14 73 -7 83 -14 95 -37 69z"/>
<path d="M3872 6787 c-17 -60 2 -117 39 -117 27 0 41 42 31 98 -6 41 -11 47
-34 50 -23 3 -28 -2 -36 -31z m46 -48 c-2 -19 -7 -33 -13 -32 -12 3 -19 49
-10 71 10 26 27 -2 23 -39z"/>
<path d="M3985 6800 c-16 -18 -16 -20 -1 -26 12 -5 16 -19 16 -56 0 -42 3 -49
18 -46 9 2 17 11 16 21 0 9 -1 42 -2 72 -2 60 -15 70 -47 35z"/>
<path d="M4091 6801 c-8 -14 -7 -22 4 -31 10 -8 14 -27 13 -53 -2 -33 1 -42
15 -45 15 -3 17 5 17 72 0 69 -2 76 -20 76 -10 0 -24 -9 -29 -19z"/>
<path d="M4195 6799 c-5 -14 -3 -25 4 -27 6 -2 11 -25 11 -53 0 -36 4 -49 14
-49 22 0 24 9 17 80 -4 49 -10 66 -23 68 -10 2 -19 -6 -23 -19z"/>
<path d="M5852 6808 c-7 -7 -12 -35 -12 -63 0 -53 12 -75 42 -75 23 0 38 30
38 79 0 57 -38 89 -68 59z m36 -65 c-3 -42 -21 -51 -26 -15 -4 29 4 52 18 52
7 0 10 -15 8 -37z"/>
<path d="M5964 6806 c-3 -9 -1 -23 6 -31 8 -10 10 -30 6 -60 -7 -41 -5 -45 14
-45 20 0 21 5 18 72 -2 60 -6 73 -21 76 -9 2 -20 -4 -23 -12z"/>
<path d="M6070 6800 c-7 -14 -8 -26 0 -40 5 -10 9 -34 8 -52 -2 -24 1 -33 15
-36 15 -3 17 5 17 72 0 60 -3 76 -15 76 -8 0 -19 -9 -25 -20z"/>
<path d="M6161 6806 c-7 -8 -15 -33 -18 -54 -4 -32 -1 -44 16 -61 11 -11 28
-21 36 -21 42 0 41 142 -1 148 -11 2 -26 -4 -33 -12z m37 -67 c-2 -19 -7 -33
-13 -32 -12 3 -19 49 -10 71 10 26 27 -2 23 -39z"/>
<path d="M6260 6795 c-11 -30 -13 -60 -4 -93 5 -19 12 -22 37 -20 36 4 48 33
38 94 -5 33 -10 39 -34 42 -21 3 -29 -2 -37 -23z m48 -51 c-5 -42 -28 -43 -28
-1 0 18 3 37 7 40 12 13 25 -10 21 -39z"/>
<path d="M6066 6623 c-17 -23 -18 -26 -2 -35 11 -6 16 -23 16 -53 0 -34 4 -45
15 -45 13 0 15 13 13 77 -2 42 -7 78 -13 79 -5 2 -19 -8 -29 -23z"/>
<path d="M3897 6634 c-9 -9 3 -116 14 -128 6 -6 13 -6 20 1 8 8 9 29 3 69 -8
54 -21 74 -37 58z"/>
<path d="M3997 6622 c-19 -21 -22 -42 -7 -42 6 0 10 -20 10 -45 0 -33 4 -45
15 -45 12 0 15 14 15 65 0 36 0 68 1 72 1 16 -18 13 -34 -5z"/>
<path d="M4084 6615 c-20 -31 -13 -90 14 -117 15 -15 21 -16 36 -5 25 19 33
90 12 122 -21 32 -41 32 -62 0z m44 -52 c-3 -42 -21 -51 -26 -15 -4 29 4 52
18 52 7 0 10 -15 8 -37z"/>
<path d="M4200 6620 c-9 -16 -9 -25 -1 -33 6 -6 11 -30 11 -54 0 -32 4 -43 15
-43 13 0 15 12 13 72 -3 75 -17 96 -38 58z"/>
<path d="M4310 6625 c-8 -10 -10 -27 -4 -52 4 -21 8 -49 8 -63 1 -15 7 -25 16
-25 12 0 15 14 15 68 0 72 -13 99 -35 72z"/>
<path d="M4406 6618 c-20 -28 -20 -38 -1 -38 11 0 15 -11 15 -43 0 -48 7 -62
24 -48 14 12 5 143 -11 148 -6 2 -18 -6 -27 -19z"/>
<path d="M5759 6624 c-10 -12 -10 -20 -1 -35 7 -10 12 -39 12 -64 0 -33 4 -45
15 -45 12 0 15 16 15 80 0 61 -3 80 -14 80 -7 0 -19 -7 -27 -16z"/>
<path d="M5864 6632 c-49 -33 -36 -142 17 -142 26 0 42 45 34 90 -10 51 -27
69 -51 52z m24 -69 c-3 -42 -21 -51 -26 -15 -4 29 4 52 18 52 7 0 10 -15 8
-37z"/>
<path d="M5968 6626 c-22 -16 -23 -32 -3 -40 11 -4 13 -16 8 -51 -5 -41 -4
-45 16 -45 21 0 22 4 19 72 -3 74 -11 87 -40 64z"/>
<path d="M6166 6618 c-14 -20 -14 -23 -1 -31 9 -5 15 -23 15 -47 0 -41 12 -58
27 -37 13 16 1 129 -14 134 -6 2 -18 -6 -27 -19z"/>
<path d="M6272 6619 c-12 -18 -12 -23 0 -30 7 -5 13 -23 13 -41 0 -23 5 -33
15 -33 22 0 21 119 0 123 -8 1 -21 -7 -28 -19z"/>
<path d="M4200 6445 c-11 -13 -11 -21 -2 -36 7 -10 12 -39 12 -65 0 -32 4 -44
13 -41 8 2 12 27 12 77 0 76 -10 95 -35 65z"/>
<path d="M4307 6442 c-22 -24 -25 -46 -7 -47 11 0 15 -12 13 -48 -1 -40 2 -47
18 -47 17 0 19 8 19 74 0 79 -14 101 -43 68z"/>
<path d="M4416 6444 c-18 -17 -21 -44 -6 -44 6 0 10 -20 10 -45 0 -33 4 -45
15 -45 12 0 15 14 15 69 0 74 -9 91 -34 65z"/>
<path d="M4506 6445 c-25 -25 -22 -107 5 -131 21 -19 21 -18 40 5 22 27 24 75
6 110 -16 31 -31 36 -51 16z m34 -65 c0 -22 -4 -40 -9 -40 -12 0 -22 45 -15
64 11 29 24 16 24 -24z"/>
<path d="M5754 6439 c-17 -19 -18 -21 -1 -30 12 -7 17 -23 17 -59 0 -38 4 -50
15 -50 13 0 15 13 13 77 -3 82 -13 96 -44 62z"/>
<path d="M5856 6444 c-19 -19 -22 -104 -4 -122 17 -17 55 -15 62 4 19 50 -2
134 -34 134 -5 0 -16 -7 -24 -16z m34 -64 c0 -22 -4 -40 -10 -40 -12 0 -24 45
-16 65 11 29 26 15 26 -25z"/>
<path d="M6067 6442 c-21 -23 -22 -42 -2 -42 11 0 15 -12 15 -45 0 -33 4 -45
15 -45 12 0 15 15 15 75 0 80 -10 93 -43 57z"/>
<path d="M6176 6441 c-18 -20 -21 -41 -6 -41 6 0 10 -18 10 -40 0 -28 4 -40
14 -40 21 0 27 27 20 81 -8 57 -15 65 -38 40z"/>
<path d="M3990 6435 c-10 -12 -10 -19 -2 -27 7 -7 12 -29 12 -49 0 -38 15 -59
30 -43 4 5 5 37 3 72 -6 64 -18 77 -43 47z"/>
<path d="M4076 6428 c-18 -26 -20 -56 -6 -93 22 -58 80 -32 80 37 0 73 -41
104 -74 56z m44 -48 c0 -29 -4 -40 -15 -40 -10 0 -15 10 -15 33 0 19 3 37 7
40 15 16 23 5 23 -33z"/>
<path d="M5657 6428 c-3 -12 -2 -28 2 -37 5 -9 6 -31 4 -48 -5 -29 -3 -33 17
-33 22 0 22 3 16 53 -3 28 -6 60 -6 70 0 24 -27 21 -33 -5z"/>
<path d="M5964 6436 c-3 -9 -1 -23 6 -31 6 -8 10 -33 8 -57 -2 -35 0 -43 15
-46 16 -3 18 4 15 70 -2 60 -6 73 -21 76 -9 2 -20 -4 -23 -12z"/>
<path d="M4089 6254 c-11 -14 -11 -18 4 -29 11 -8 17 -26 17 -49 0 -25 4 -36
15 -36 16 0 20 42 9 99 -7 34 -24 40 -45 15z"/>
<path d="M4196 6253 c-4 -9 -2 -21 4 -27 5 -5 10 -32 10 -59 0 -34 4 -47 13
-45 8 3 13 30 15 76 3 66 1 72 -16 72 -11 0 -23 -8 -26 -17z"/>
<path d="M4286 6248 c-32 -45 -9 -128 34 -128 36 0 50 57 29 119 -13 37 -41
41 -63 9z m42 -55 c-2 -21 -7 -38 -13 -38 -5 0 -11 17 -13 38 -3 29 0 37 13
37 13 0 16 -8 13 -37z"/>
<path d="M4389 6243 c-23 -60 18 -144 55 -114 16 14 22 93 10 125 -10 27 -53
20 -65 -11z m49 -49 c-5 -42 -28 -43 -28 -1 0 18 3 37 7 40 12 13 25 -10 21
-39z"/>
<path d="M4503 6254 c-3 -8 -1 -20 6 -27 6 -6 11 -33 11 -59 0 -36 4 -48 15
-48 12 0 15 15 15 75 0 69 -2 75 -20 75 -11 0 -23 -7 -27 -16z"/>
<path d="M4614 6256 c-3 -9 -1 -23 6 -31 7 -9 10 -29 7 -48 -6 -40 6 -68 24
-50 8 8 8 30 3 74 -9 61 -28 87 -40 55z"/>
<path d="M5653 6254 c-3 -9 -1 -25 5 -35 7 -10 12 -37 12 -59 0 -29 4 -40 15
-40 25 0 17 143 -8 148 -9 2 -20 -4 -24 -14z"/>
<path d="M5755 6249 c-4 -12 -2 -26 4 -32 6 -6 11 -30 11 -54 0 -32 4 -43 15
-43 12 0 15 15 15 75 0 67 -2 75 -19 75 -11 0 -23 -9 -26 -21z"/>
<path d="M5850 6255 c-21 -25 -18 -104 3 -120 35 -25 67 0 67 52 0 70 -38 107
-70 68z m40 -61 c0 -24 -5 -34 -15 -34 -10 0 -15 10 -15 33 0 19 3 37 6 40 13
13 24 -5 24 -39z"/>
<path d="M5962 6250 c-10 -17 -10 -21 3 -27 13 -4 16 -17 13 -52 -2 -36 0 -46
12 -46 12 0 15 14 15 70 0 54 -3 70 -15 73 -8 1 -21 -7 -28 -18z"/>
<path d="M6072 6258 c-15 -15 -16 -38 -2 -38 6 0 10 -20 10 -45 0 -33 4 -45
15 -45 12 0 15 14 15 70 0 71 -10 86 -38 58z"/>
<path d="M4202 6078 c-15 -15 -16 -38 -2 -38 6 0 10 -18 10 -40 0 -29 4 -40
15 -40 13 0 15 11 13 62 -3 62 -14 78 -36 56z"/>
<path d="M4297 6072 c-21 -23 -21 -32 -2 -32 11 0 15 -12 15 -51 0 -43 3 -50
18 -47 14 3 16 13 13 68 -4 87 -12 98 -44 62z"/>
<path d="M4399 6068 c-9 -18 -8 -24 6 -34 12 -9 16 -23 13 -51 -2 -28 1 -38
12 -38 19 0 24 25 15 91 -7 58 -25 71 -46 32z"/>
<path d="M4507 6072 c-21 -23 -21 -32 -2 -32 11 0 15 -12 15 -50 0 -38 4 -50
15 -50 13 0 15 12 13 72 -3 75 -14 91 -41 60z"/>
<path d="M4608 6076 c-22 -16 -23 -36 -3 -36 11 0 15 -12 15 -50 0 -38 4 -50
15 -50 12 0 15 15 15 75 0 78 -7 88 -42 61z"/>
<path d="M5550 6075 c-17 -21 -24 -89 -11 -114 13 -23 40 -28 59 -9 15 15 16
92 2 119 -13 23 -33 25 -50 4z m30 -65 c0 -22 -4 -40 -9 -40 -14 0 -23 37 -16
60 11 34 25 22 25 -20z"/>
<path d="M5655 6070 c-16 -17 -17 -23 -6 -30 8 -5 14 -28 15 -56 1 -36 5 -49
16 -49 12 0 15 15 15 74 0 80 -10 95 -40 61z"/>
<path d="M5757 6072 c-13 -14 -14 -21 -5 -30 7 -7 12 -31 13 -54 0 -33 4 -43
18 -46 16 -3 18 4 15 69 -3 76 -14 92 -41 61z"/>
<path d="M5849 6073 c-8 -9 -14 -35 -14 -59 0 -53 22 -79 59 -70 24 6 26 10
26 64 0 32 -5 63 -12 70 -17 17 -43 15 -59 -5z m41 -58 c0 -47 -14 -60 -25
-24 -8 25 2 69 15 69 6 0 10 -20 10 -45z"/>
<path d="M5970 6075 c-11 -13 -11 -21 -3 -35 7 -10 9 -28 6 -40 -5 -18 -2 -21
13 -18 16 3 19 12 19 52 0 52 -13 67 -35 41z"/>
<path d="M4397 5892 c-20 -22 -22 -91 -4 -116 8 -11 23 -17 38 -14 22 3 24 8
27 59 2 42 -1 61 -13 73 -21 20 -28 20 -48 -2z m38 -60 c0 -46 -19 -44 -23 2
-3 28 0 37 10 34 7 -3 13 -19 13 -36z"/>
<path d="M4512 5898 c-15 -15 -16 -38 -2 -38 6 0 10 -25 10 -56 0 -40 3 -55
13 -51 8 2 12 27 12 77 0 73 -9 92 -33 68z"/>
<path d="M4607 5892 c-21 -23 -21 -32 -2 -32 11 0 15 -12 15 -50 0 -36 4 -50
14 -50 20 0 22 10 18 85 -4 69 -15 80 -45 47z"/>
<path d="M4712 5885 c-10 -21 -9 -27 3 -31 10 -4 15 -20 15 -50 0 -39 11 -57
23 -36 9 14 -8 135 -19 139 -6 2 -16 -8 -22 -22z"/>
<path d="M5550 5890 c-9 -16 -8 -25 2 -37 7 -9 13 -32 13 -52 0 -25 4 -36 15
-36 18 0 24 45 13 99 -10 46 -27 56 -43 26z"/>
<path d="M5760 5895 c-8 -9 -9 -21 -4 -32 5 -10 9 -36 9 -58 0 -29 4 -40 15
-40 12 0 15 14 15 69 0 71 -11 90 -35 61z"/>
<path d="M5862 5894 c-22 -15 -22 -15 5 -43 32 -33 43 -31 43 8 0 40 -20 55
-48 35z"/>
<path d="M4317 5893 c-14 -13 -6 -33 13 -33 13 0 20 7 20 20 0 19 -20 27 -33
13z"/>
<path d="M5649 5884 c-11 -14 -11 -18 4 -29 11 -8 17 -26 17 -54 0 -30 4 -41
15 -41 12 0 15 14 15 70 0 62 -2 70 -19 70 -10 0 -25 -7 -32 -16z"/>
<path d="M7105 5828 c-23 -28 -26 -38 -21 -76 5 -38 2 -50 -26 -90 -175 -257
-411 -489 -677 -664 -122 -81 -324 -183 -465 -236 -55 -21 -102 -44 -104 -51
-7 -21 37 -9 175 45 459 180 818 453 1112 842 34 45 69 82 77 82 56 0 103 66
83 118 -18 47 -39 62 -85 62 -35 0 -47 -5 -69 -32z"/>
<path d="M5476 5824 c-9 -24 -7 -54 4 -54 6 0 10 16 10 35 0 38 -4 44 -14 19z"/>
<path d="M4615 5716 c-13 -19 -14 -30 -7 -39 6 -7 12 -33 14 -57 2 -32 7 -45
18 -45 12 0 14 13 12 75 -2 41 -8 79 -12 84 -5 4 -16 -4 -25 -18z"/>
<path d="M4400 5711 c0 -10 7 -24 15 -31 12 -10 16 -9 21 4 3 9 4 23 0 31 -8
21 -36 19 -36 -4z"/>
<path d="M4711 5709 c-11 -18 -11 -23 1 -30 7 -5 13 -26 13 -51 0 -31 4 -43
15 -43 19 0 24 25 15 91 -7 58 -21 68 -44 33z"/>
<path d="M5554 5706 c-3 -15 -1 -32 5 -40 6 -7 10 -30 8 -52 -1 -29 2 -39 13
-39 12 0 15 15 15 75 0 63 -3 75 -17 78 -12 2 -19 -5 -24 -22z"/>
<path d="M5658 5704 c-10 -22 -10 -28 0 -32 7 -2 12 -22 12 -48 0 -33 4 -44
15 -44 13 0 15 12 13 72 -3 78 -19 99 -40 52z"/>
<path d="M5760 5714 c-11 -12 -11 -18 2 -31 20 -20 38 -9 38 23 0 27 -21 32
-40 8z"/>
<path d="M4503 5704 c-3 -9 -1 -25 5 -35 7 -10 12 -37 12 -60 0 -28 4 -39 13
-37 8 3 13 30 15 76 3 67 1 72 -18 72 -11 0 -23 -7 -27 -16z"/>
<path d="M5457 5707 c-3 -8 -2 -19 3 -26 4 -7 5 -32 3 -56 -5 -41 11 -71 26
-47 12 19 0 142 -14 142 -7 0 -15 -6 -18 -13z"/>
<path d="M4615 5530 c-14 -16 -16 -23 -7 -32 7 -7 12 -31 12 -54 0 -46 8 -58
30 -44 10 6 11 23 6 71 -7 74 -16 87 -41 59z"/>
<path d="M4715 5530 c-17 -19 -17 -21 -1 -33 13 -9 17 -24 14 -52 -2 -31 1
-40 15 -43 16 -3 18 4 15 69 -3 78 -13 92 -43 59z"/>
<path d="M4503 5524 c-3 -8 -1 -20 6 -27 6 -6 11 -30 11 -54 0 -32 4 -43 15
-43 12 0 15 14 15 70 0 64 -2 70 -20 70 -11 0 -23 -7 -27 -16z"/>
<path d="M5440 5514 c-25 -65 0 -135 41 -114 15 8 19 22 19 60 0 26 -3 55 -6
64 -10 25 -43 19 -54 -10z m30 -49 c0 -19 -4 -35 -10 -35 -5 0 -10 16 -10 35
0 19 5 35 10 35 6 0 10 -16 10 -35z"/>
<path d="M5550 5525 c-12 -14 -11 -18 1 -26 9 -5 14 -26 14 -56 0 -36 4 -48
15 -48 23 0 22 138 -1 143 -9 1 -22 -4 -29 -13z"/>
<path d="M5649 5524 c-10 -13 -10 -17 2 -25 8 -5 14 -25 14 -51 0 -33 4 -43
18 -46 15 -3 17 5 17 67 0 63 -2 71 -19 71 -10 0 -24 -7 -32 -16z"/>
<path d="M3275 5471 c-16 -27 164 -234 304 -349 35 -29 103 -80 152 -113 79
-53 89 -63 89 -90 0 -42 48 -89 90 -89 76 0 119 102 65 156 -21 21 -33 25 -79
23 -44 -2 -63 3 -112 31 -167 94 -321 219 -418 341 -84 104 -83 103 -91 90z"/>
<path d="M4716 5348 c-15 -20 -15 -24 -1 -34 9 -7 15 -27 15 -53 0 -30 4 -41
15 -41 13 0 15 12 13 72 -3 77 -16 94 -42 56z"/>
<path d="M5456 5351 c-18 -20 -21 -41 -6 -41 6 0 10 -22 10 -50 0 -38 4 -50
15 -50 12 0 15 15 15 74 0 80 -8 96 -34 67z"/>
<path d="M4491 5329 c-22 -63 10 -130 53 -113 20 8 30 61 19 105 -7 26 -15 35
-35 37 -21 3 -28 -3 -37 -29z m49 -45 c0 -24 -4 -34 -12 -32 -15 5 -22 42 -14
64 10 25 26 5 26 -32z"/>
<path d="M4610 5345 c-10 -12 -10 -18 1 -31 7 -9 12 -34 10 -60 -2 -34 1 -44
13 -44 24 0 29 18 21 86 -7 66 -20 80 -45 49z"/>
<path d="M5542 5348 c-7 -7 -12 -36 -12 -65 0 -42 4 -54 20 -63 36 -19 60 3
60 56 0 25 -5 54 -10 65 -12 21 -40 25 -58 7z m38 -58 c0 -40 -15 -54 -26 -25
-8 20 4 65 16 65 6 0 10 -18 10 -40z"/>
<path d="M5662 5348 c-15 -15 -16 -38 -2 -38 6 0 10 -20 10 -44 0 -25 4 -47 9
-50 18 -11 27 21 23 82 -4 62 -14 76 -40 50z"/>
<path d="M4510 5170 c-9 -16 -9 -25 -1 -33 6 -6 11 -33 11 -59 0 -37 4 -48 15
-48 13 0 15 13 13 77 -3 80 -17 102 -38 63z"/>
<path d="M4716 5166 c-15 -23 -15 -26 1 -34 12 -7 15 -19 10 -50 -3 -29 -1
-45 9 -53 20 -16 26 5 22 86 -3 75 -16 90 -42 51z"/>
<path d="M4609 5158 c-9 -16 -9 -23 0 -26 6 -2 11 -25 11 -54 0 -42 3 -49 18
-46 9 2 17 11 16 21 0 9 -1 42 -2 72 -2 60 -21 74 -43 33z"/>
<path d="M5439 5164 c-11 -14 -11 -18 4 -29 12 -8 17 -26 17 -59 0 -34 4 -46
15 -46 12 0 15 13 15 59 0 88 -18 115 -51 75z"/>
<path d="M5542 5160 c-16 -26 -15 -30 3 -30 11 0 15 -12 15 -50 0 -38 4 -50
15 -50 12 0 15 15 15 75 0 65 -2 75 -18 75 -9 0 -23 -9 -30 -20z"/>
<path d="M5641 5166 c-7 -9 -11 -38 -9 -73 3 -56 4 -58 32 -61 16 -2 32 2 37
10 12 18 11 95 -1 119 -12 22 -43 25 -59 5z m39 -67 c0 -28 -4 -39 -12 -37
-14 5 -23 51 -14 74 10 27 26 4 26 -37z"/>
<path d="M4497 4364 c-52 -52 -40 -141 21 -166 38 -15 1229 -25 1244 -10 7 7
-2 19 -31 40 -33 24 -60 32 -148 46 -189 28 -972 116 -1038 116 -12 0 -34 -12
-48 -26z"/>
<path d="M4487 4135 c-22 -21 -22 -79 0 -116 10 -16 40 -41 67 -54 50 -25 50
-25 550 -25 333 0 514 4 541 11 44 12 125 88 125 117 0 16 -12 18 -102 20
-101 3 -446 22 -723 41 -77 5 -208 13 -291 17 -133 6 -152 4 -167 -11z"/>
<path d="M5103 3893 c-227 -2 -413 -6 -413 -9 0 -3 29 -46 65 -96 35 -50 62
-95 60 -98 -2 -4 -73 -10 -156 -13 -503 -22 -910 -100 -935 -179 -47 -149
1023 -259 1926 -198 548 37 894 118 850 200 -42 79 -440 154 -929 176 -83 4
-154 11 -157 15 -5 9 58 108 103 162 21 26 24 51 5 45 -4 -2 -193 -4 -419 -5z"/>
<path d="M5850 2862 c-103 -34 -191 -107 -238 -197 -25 -45 -27 -60 -27 -160
0 -96 3 -116 23 -153 72 -136 216 -222 372 -222 91 -1 169 -50 186 -117 10
-37 -23 -110 -63 -141 -30 -22 -48 -27 -107 -30 -61 -3 -76 -1 -106 20 -42 28
-80 83 -80 114 0 25 -14 39 -29 29 -18 -11 17 -97 56 -137 60 -61 167 -77 250
-37 77 37 125 128 103 193 -28 87 -90 124 -229 137 -68 6 -110 16 -147 34
-217 106 -276 362 -122 530 73 80 155 118 268 123 100 5 164 -11 242 -60 85
-53 145 -149 155 -245 6 -55 17 -73 34 -56 13 13 -13 129 -40 181 -36 70 -98
130 -178 169 -69 34 -84 38 -172 40 -72 2 -110 -2 -151 -15z"/>
<path d="M2780 2855 c0 -13 50 -15 390 -15 340 0 390 2 390 15 0 13 -50 15
-390 15 -340 0 -390 -2 -390 -15z"/>
<path d="M3628 2863 c-2 -4 -4 -287 -4 -628 1 -496 4 -620 14 -620 10 0 13
125 13 625 0 566 -4 662 -23 623z"/>
<path d="M3686 2863 c-3 -3 -6 -287 -6 -630 0 -547 2 -623 15 -623 13 0 15 76
15 624 0 344 -4 627 -9 630 -4 3 -11 3 -15 -1z"/>
<path d="M3739 2858 c-2 -7 -3 -278 -1 -603 l2 -590 323 2 c177 2 325 3 330 3
4 0 7 4 7 10 0 6 -117 11 -317 12 l-318 3 -2 575 c-2 316 -3 581 -3 588 0 6
-4 12 -9 12 -5 0 -10 -6 -12 -12z"/>
<path d="M3795 2858 c-3 -7 -4 -265 -3 -573 3 -560 3 -560 311 -563 275 -2
307 -1 307 14 0 14 -29 15 -289 10 -191 -4 -292 -3 -296 4 -3 5 -6 257 -5 559
0 367 -3 552 -10 556 -6 3 -12 0 -15 -7z"/>
<path d="M3854 2860 c-5 -5 -7 -220 -4 -522 5 -513 5 -513 300 -513 238 0 295
3 295 13 0 11 -56 14 -283 15 -283 2 -283 2 -282 504 0 276 -4 504 -8 507 -5
3 -13 1 -18 -4z"/>
<path d="M4856 2861 c-4 -6 27 -98 68 -203 108 -278 386 -1025 386 -1036 0
-15 28 -23 33 -9 2 7 1 19 -3 27 -5 8 -71 184 -149 390 -330 881 -320 856
-335 831z"/>
<path d="M4915 2860 c-4 -6 2 -32 13 -58 26 -61 351 -922 405 -1074 26 -72 47
-118 56 -118 19 0 16 9 -122 375 -254 672 -317 840 -317 851 0 19 -27 37 -35
24z"/>
<path d="M4975 2860 c-4 -6 9 -50 29 -98 57 -140 402 -1066 418 -1119 5 -18
15 -33 23 -33 8 0 15 3 15 7 0 7 -360 975 -416 1116 -19 48 -34 93 -34 101 0
20 -26 40 -35 26z"/>
<path d="M5034 2857 c-3 -8 1 -28 9 -44 8 -15 55 -138 105 -273 106 -285 213
-573 281 -750 27 -69 51 -137 55 -152 6 -26 36 -41 36 -18 0 5 -21 62 -46 127
-25 65 -102 269 -170 453 -69 184 -150 400 -179 479 -30 79 -55 149 -55 156 0
7 -7 18 -15 25 -12 10 -16 9 -21 -3z"/>
<path d="M5095 2857 c-4 -8 -2 -24 4 -35 6 -11 89 -231 185 -488 96 -258 193
-515 214 -570 22 -56 42 -114 46 -128 6 -26 36 -37 36 -13 0 8 -30 90 -66 183
-36 93 -92 241 -124 329 -176 475 -268 717 -278 727 -8 8 -13 7 -17 -5z"/>
<path d="M6496 2863 c-3 -3 -6 -287 -6 -630 0 -547 2 -623 15 -623 13 0 15 76
15 624 0 344 -4 627 -9 630 -4 3 -11 3 -15 -1z"/>
<path d="M6557 2864 c-4 -4 -7 -117 -7 -251 0 -191 3 -244 13 -241 9 4 13 63
15 243 2 218 -2 268 -21 249z"/>
<path d="M6604 2857 c-10 -28 3 -481 15 -485 15 -5 16 484 1 493 -6 3 -13 0
-16 -8z"/>
<path d="M6667 2864 c-4 -4 -7 -117 -7 -251 0 -191 3 -244 13 -241 9 4 13 63
15 243 2 218 -2 268 -21 249z"/>
<path d="M6727 2864 c-4 -4 -7 -117 -7 -251 0 -191 3 -244 13 -241 9 4 13 63
15 243 2 218 -2 268 -21 249z"/>
<path d="M7216 2863 c-3 -3 -6 -287 -6 -630 0 -547 2 -623 15 -623 13 0 15 76
15 624 0 344 -4 627 -9 630 -4 3 -11 3 -15 -1z"/>
<path d="M7276 2863 c-3 -3 -6 -287 -6 -630 0 -547 2 -623 15 -623 13 0 15 76
15 624 0 344 -4 627 -9 630 -4 3 -11 3 -15 -1z"/>
<path d="M7446 2863 c-3 -3 -6 -287 -6 -630 0 -547 2 -623 15 -623 13 0 15 76
15 624 0 344 -4 627 -9 630 -4 3 -11 3 -15 -1z"/>
<path d="M7330 2858 c0 -1 0 -282 -1 -623 0 -425 3 -621 10 -623 8 -3 12 183
13 602 1 333 2 614 2 623 1 9 -5 18 -11 21 -7 2 -13 2 -13 0z"/>
<path d="M7380 2235 c0 -549 2 -625 15 -625 13 0 15 76 15 625 0 549 -2 625
-15 625 -13 0 -15 -76 -15 -625z"/>
<path d="M5927 2819 c-163 -24 -281 -143 -294 -298 -7 -83 25 -161 96 -232 68
-68 135 -96 253 -105 90 -7 137 -26 182 -70 45 -46 59 -81 54 -141 -6 -70 -46
-128 -113 -162 -66 -35 -170 -36 -231 -4 -55 29 -101 84 -114 135 -16 63 -18
68 -30 68 -32 0 18 -137 66 -179 53 -47 93 -64 166 -69 86 -6 146 11 198 55
101 87 115 213 33 304 -54 60 -102 80 -209 89 -154 13 -240 64 -295 176 -29
58 -31 70 -27 132 9 119 65 198 178 251 80 37 202 37 280 0 31 -14 72 -41 93
-58 45 -40 87 -125 92 -183 2 -28 8 -43 16 -43 21 0 12 81 -15 140 -13 28 -37
67 -54 86 -41 47 -132 95 -206 108 -33 6 -60 10 -60 10 -1 -1 -27 -5 -59 -10z"/>
<path d="M2780 2798 c0 -16 773 -14 778 2 2 7 -135 10 -387 10 -306 0 -391 -3
-391 -12z"/>
<path d="M5865 2750 c-111 -44 -175 -134 -175 -244 0 -76 24 -131 80 -185 52
-50 122 -76 228 -85 203 -16 312 -155 260 -330 -19 -64 -101 -141 -173 -162
-183 -53 -361 49 -390 224 -4 26 -12 42 -21 42 -18 0 -18 -14 2 -80 43 -144
153 -220 319 -220 71 0 90 4 143 31 106 53 156 132 156 249 1 88 -20 136 -83
193 -56 51 -101 67 -211 78 -117 11 -188 43 -237 107 -124 163 -1 376 217 376
144 -1 270 -108 270 -231 0 -23 4 -33 13 -30 19 7 11 82 -15 133 -26 52 -69
94 -131 126 -61 31 -184 35 -252 8z"/>
<path d="M2780 2745 c0 -13 47 -15 387 -13 298 2 387 6 391 16 3 9 -79 12
-387 12 -342 0 -391 -2 -391 -15z"/>
<path d="M4835 2728 c-28 -88 -316 -836 -394 -1028 -36 -87 -37 -93 -15 -88 9
2 26 28 38 63 13 33 67 173 121 310 195 499 275 713 275 736 0 21 -18 26 -25
7z"/>
<path d="M5900 2705 c-157 -50 -209 -225 -102 -338 46 -49 97 -68 204 -78 117
-10 169 -30 237 -94 62 -58 85 -115 84 -204 -1 -123 -55 -212 -165 -272 -60
-33 -67 -34 -168 -34 -95 0 -111 3 -162 28 -106 52 -171 138 -187 246 -4 31
-11 46 -21 46 -19 0 -16 -30 13 -115 29 -88 115 -177 201 -209 153 -57 318
-27 423 79 60 60 86 119 91 211 6 100 -14 162 -74 228 -65 73 -132 102 -256
113 -80 6 -111 14 -150 35 -118 64 -134 225 -30 297 53 36 86 46 150 46 106
-1 196 -74 209 -169 7 -49 29 -50 25 -2 -5 66 -58 138 -126 173 -51 26 -138
32 -196 13z"/>
<path d="M2784 2701 c-18 -18 42 -21 387 -21 308 0 390 3 386 13 -3 9 -89 12
-386 12 -210 0 -384 -2 -387 -4z"/>
<path d="M4871 2649 c-6 -13 -44 -112 -85 -219 -56 -147 -274 -709 -313 -807
-3 -7 2 -13 11 -13 9 0 19 8 23 18 11 32 263 686 330 855 48 122 63 171 55
179 -8 8 -14 5 -21 -13z"/>
<path d="M5918 2654 c-89 -28 -140 -106 -119 -180 25 -88 85 -125 221 -135
122 -8 191 -38 265 -113 74 -77 99 -143 92 -252 -6 -101 -30 -157 -97 -228
-145 -154 -409 -162 -572 -17 -56 50 -113 156 -123 230 -5 34 -12 51 -21 51
-20 0 -18 -40 7 -113 41 -124 113 -206 228 -261 63 -30 72 -31 191 -31 121 0
127 1 192 33 85 41 153 109 192 192 28 59 31 74 31 165 0 95 -2 103 -34 163
-71 130 -184 198 -350 211 -69 5 -108 13 -128 26 -94 62 -96 159 -5 213 83 48
190 29 232 -41 11 -18 20 -44 20 -59 0 -19 5 -28 16 -28 14 0 16 7 11 40 -14
105 -135 171 -249 134z"/>
<path d="M3152 2653 c-238 -2 -372 -7 -370 -13 4 -13 766 -21 775 -8 5 10 -16
30 -27 25 -3 -1 -173 -3 -378 -4z"/>
<path d="M2846 2593 c-3 -3 -6 -55 -6 -115 0 -89 3 -108 15 -108 12 0 15 19
15 109 0 100 -6 131 -24 114z"/>
<path d="M2895 2588 c-10 -25 -1 -223 10 -223 13 0 19 215 6 228 -7 7 -12 5
-16 -5z"/>
<path d="M2955 2588 c-10 -25 -1 -223 10 -223 13 0 19 215 6 228 -7 7 -12 5
-16 -5z"/>
<path d="M3010 2486 c0 -98 2 -116 15 -116 13 0 15 17 13 112 -2 78 -7 113
-15 116 -10 3 -13 -24 -13 -112z"/>
<path d="M2782 2478 c2 -78 7 -113 16 -116 9 -3 12 24 12 112 0 98 -2 116 -15
116 -13 0 -15 -17 -13 -112z"/>
<path d="M4907 2583 c-5 -8 -50 -125 -247 -633 -67 -173 -122 -319 -123 -325
-4 -24 27 -7 36 20 10 32 195 512 298 774 39 98 57 157 51 163 -5 5 -12 6 -15
1z"/>
<path d="M4929 2493 c-44 -117 -314 -815 -329 -850 -6 -15 -6 -25 1 -29 15 -9
24 4 39 51 16 51 265 693 296 764 26 59 29 77 14 86 -6 3 -15 -6 -21 -22z"/>
<path d="M4951 2398 c-18 -46 -135 -348 -216 -560 -49 -130 -79 -220 -73 -224
5 -3 13 -2 18 2 4 5 48 117 98 249 50 132 116 305 146 385 31 80 56 151 56
158 0 20 -20 14 -29 -10z"/>
<path d="M2784 2331 c-23 -23 17 -26 373 -24 208 2 382 3 386 3 5 0 7 6 4 13
-3 9 -88 12 -381 12 -208 0 -380 -2 -382 -4z"/>
<path d="M6550 2325 c0 -13 37 -15 313 -13 202 2 311 7 310 13 -2 6 -117 11
-313 13 -273 2 -310 0 -310 -13z"/>
<path d="M6550 2275 c0 -13 37 -15 310 -13 198 2 310 7 310 13 0 6 -112 11
-310 13 -273 2 -310 0 -310 -13z"/>
<path d="M2780 2265 c0 -13 49 -15 385 -15 336 0 385 2 385 15 0 13 -49 15
-385 15 -336 0 -385 -2 -385 -15z"/>
<path d="M3053 2223 c-243 -3 -273 -5 -273 -19 0 -13 7 -15 31 -10 17 3 191 6
386 6 279 0 354 3 351 13 -5 13 -54 14 -495 10z"/>
<path d="M6552 2220 c5 -15 611 -15 616 -1 3 8 -93 11 -308 11 -207 0 -311 -3
-308 -10z"/>
<path d="M4957 2183 c-17 -17 -2 -23 53 -23 47 0 60 3 60 15 0 11 -13 15 -53
15 -30 0 -57 -3 -60 -7z"/>
<path d="M6550 2165 c0 -13 41 -15 310 -15 269 0 310 2 310 15 0 13 -41 15
-310 15 -269 0 -310 -2 -310 -15z"/>
<path d="M2780 2155 c0 -14 43 -15 382 -13 294 2 382 6 386 16 3 9 -78 12
-382 12 -341 0 -386 -2 -386 -15z"/>
<path d="M4993 2133 c-53 -3 -73 -8 -73 -17 0 -11 19 -13 87 -10 47 2 88 6 91
8 7 8 -9 26 -21 24 -7 -1 -45 -4 -84 -5z"/>
<path d="M6552 2112 c-2 -7 -3 -14 -1 -15 2 -1 144 0 314 3 199 3 309 9 307
15 -4 16 -613 13 -620 -3z"/>
<path d="M2780 2097 c0 -17 5 -19 31 -13 17 3 191 6 385 6 315 0 354 2 354 16
0 14 -41 15 -385 13 -374 -2 -385 -3 -385 -22z"/>
<path d="M4900 2065 c0 -13 15 -15 108 -13 63 2 107 7 107 13 0 6 -44 11 -107
13 -93 2 -108 0 -108 -13z"/>
<path d="M6609 2063 c0 -4 0 -107 -1 -228 0 -150 4 -221 11 -223 15 -5 15 444
1 453 -5 3 -10 3 -11 -2z"/>
<path d="M6666 2063 c-3 -3 -6 -107 -6 -230 0 -192 2 -223 15 -223 13 0 15 32
15 224 0 204 -5 248 -24 229z"/>
<path d="M6718 2063 c-1 -4 -3 -107 -3 -228 0 -177 3 -220 13 -220 18 0 23
446 5 452 -6 2 -13 0 -15 -4z"/>
<path d="M2897 2053 c-4 -3 -7 -105 -7 -225 0 -187 2 -218 15 -218 13 0 15 32
15 225 0 205 -3 238 -23 218z"/>
<path d="M2950 1835 c0 -177 3 -226 13 -222 9 3 12 56 12 222 0 166 -3 219
-12 223 -10 3 -13 -46 -13 -223z"/>
<path d="M3010 2058 c-1 -1 -2 -102 -3 -223 -2 -190 0 -220 13 -220 13 0 15
31 15 219 0 167 -3 220 -12 223 -7 3 -13 3 -13 1z"/>
<path d="M6550 1835 c0 -193 2 -225 15 -225 13 0 15 32 15 225 0 193 -2 225
-15 225 -13 0 -15 -32 -15 -225z"/>
<path d="M2780 1830 c0 -189 2 -220 15 -220 13 0 15 31 15 220 0 189 -2 220
-15 220 -13 0 -15 -31 -15 -220z"/>
<path d="M2840 1830 c0 -173 3 -221 13 -217 17 5 17 429 -1 435 -9 3 -12 -47
-12 -218z"/>
<path d="M4887 2023 c-19 -18 4 -23 118 -23 104 0 125 2 125 15 0 12 -20 15
-118 15 -65 0 -122 -3 -125 -7z"/>
<path d="M4865 1970 c-4 -6 -5 -13 -2 -16 2 -2 67 -5 143 -6 114 -1 139 1 139
13 0 11 -27 15 -137 17 -91 2 -139 -1 -143 -8z"/>
<path d="M3840 1785 c0 -13 39 -15 295 -15 256 0 295 2 295 15 0 13 -39 15
-295 15 -256 0 -295 -2 -295 -15z"/>
<path d="M3735 1630 c-3 -6 0 -12 7 -15 7 -3 152 -4 322 -3 237 2 310 6 314
16 5 16 -633 18 -643 2z"/>
<path d="M2770 1393 c1 -5 9 -42 19 -83 15 -61 22 -75 37 -75 14 0 20 8 22 30
5 43 20 53 27 19 11 -50 15 -56 32 -52 17 3 41 88 43 146 0 39 -27 25 -34 -18
-7 -48 -21 -45 -30 5 -10 54 -46 41 -46 -16 0 -10 -4 -19 -9 -19 -11 0 -21 25
-21 51 0 12 -7 19 -20 19 -11 0 -20 -3 -20 -7z"/>
<path d="M2974 1387 c-3 -8 -4 -45 -2 -83 3 -69 3 -69 48 -69 33 0 45 4 45 15
0 8 -9 16 -20 18 -42 7 -49 12 -36 25 6 6 19 12 29 12 9 0 17 7 17 15 0 8 -9
15 -20 15 -11 0 -20 7 -20 15 0 9 9 15 25 15 16 0 25 6 25 15 0 21 -83 27 -91
7z"/>
<path d="M3097 1393 c-4 -3 -7 -39 -7 -80 0 -73 0 -73 48 -73 26 0 53 5 60 12
14 14 16 54 2 63 -5 3 -7 19 -4 34 5 23 2 32 -14 40 -23 12 -75 15 -85 4z m58
-53 c-5 -8 -11 -8 -17 -2 -6 6 -7 16 -3 22 5 8 11 8 17 2 6 -6 7 -16 3 -22z
m10 -51 c0 -7 -8 -15 -17 -17 -18 -3 -25 18 -11 32 10 10 28 1 28 -15z"/>
<path d="M3297 1393 c-4 -3 -7 -39 -7 -80 0 -73 0 -73 44 -73 51 0 66 14 73
67 7 52 -25 93 -71 93 -18 0 -36 -3 -39 -7z m62 -37 c7 -8 11 -30 9 -48 -2
-25 -8 -33 -23 -33 -22 0 -31 30 -21 71 7 27 18 30 35 10z"/>
<path d="M3436 1392 c-3 -6 -5 -41 -4 -80 2 -70 2 -70 43 -75 22 -3 44 -2 49
3 13 13 -3 30 -30 30 -19 0 -25 5 -22 18 2 9 12 17 23 17 11 0 20 7 20 15 0 8
-9 15 -20 15 -34 0 -24 30 12 33 31 3 32 2 44 -55 22 -107 57 -111 83 -9 9 36
16 72 16 81 0 24 -29 18 -34 -7 -14 -69 -18 -80 -24 -73 -4 3 -11 25 -17 48
-10 42 -10 42 -72 45 -33 2 -64 -1 -67 -6z"/>
<path d="M3674 1387 c-3 -8 -4 -45 -2 -83 3 -69 3 -69 48 -69 33 0 45 4 45 15
0 9 -11 16 -27 18 -34 4 -37 29 -5 34 12 2 22 10 22 18 0 8 -10 16 -22 18 -32
5 -29 30 5 34 42 5 32 23 -16 26 -29 2 -44 -1 -48 -11z"/>
<path d="M3790 1321 c0 -81 0 -81 30 -82 17 -1 36 -2 42 -3 7 -1 14 7 16 16 2
12 -5 17 -25 20 -27 3 -28 5 -28 63 0 49 -3 60 -17 63 -16 3 -18 -6 -18 -77z"/>
<path d="M3910 1380 c-22 -22 -27 -78 -10 -110 40 -75 132 -21 115 67 -11 61
-65 83 -105 43z m65 -60 c0 -38 -3 -45 -20 -45 -15 0 -21 8 -23 33 -4 45 4 64
25 60 14 -3 18 -13 18 -48z"/>
<path d="M4044 1387 c-3 -8 -4 -45 -2 -83 2 -53 6 -69 18 -69 10 0 16 12 18
33 2 22 8 32 21 32 25 0 41 20 41 50 0 14 -5 31 -12 38 -16 16 -77 15 -84 -1z
m61 -37 c0 -7 -6 -15 -12 -17 -8 -3 -13 4 -13 17 0 13 5 20 13 18 6 -3 12 -11
12 -18z"/>
<path d="M4165 1343 c-12 -95 -11 -108 5 -108 10 0 16 12 18 33 4 40 18 42 27
2 9 -42 24 -47 38 -11 14 37 27 40 27 7 0 -27 18 -45 29 -28 3 5 4 43 1 84 -4
63 -7 73 -24 73 -13 0 -23 -11 -30 -32 -16 -45 -24 -50 -31 -17 -11 50 -14 54
-34 54 -16 0 -21 -9 -26 -57z"/>
<path d="M4347 1393 c-4 -3 -7 -39 -7 -80 0 -73 0 -73 30 -74 17 -1 36 -2 42
-3 7 -1 14 7 16 17 3 13 -3 17 -23 17 -20 0 -26 4 -23 18 2 9 9 18 16 18 6 1
17 2 23 3 19 2 3 26 -17 26 -10 0 -19 7 -19 15 0 8 9 15 20 15 11 0 21 8 23
18 3 14 -4 17 -36 17 -21 0 -42 -3 -45 -7z"/>
<path d="M4458 1351 c-4 -109 -3 -116 12 -116 10 0 17 14 21 45 5 45 5 45 27
-3 16 -35 27 -48 39 -45 15 3 18 15 18 83 0 67 -3 80 -17 83 -13 3 -17 -6 -20
-40 -3 -43 -3 -43 -23 -3 -11 22 -28 41 -38 43 -14 3 -17 -5 -19 -47z"/>
<path d="M4595 1390 c-3 -5 3 -15 15 -22 17 -11 20 -23 20 -75 0 -56 2 -63 20
-63 18 0 20 7 20 65 0 58 2 65 20 65 13 0 20 7 20 20 0 18 -7 20 -54 20 -30 0
-58 -4 -61 -10z"/>
<path d="M4803 1393 c-7 -2 -13 -20 -13 -38 0 -19 -4 -37 -10 -40 -16 -10 -12
-61 6 -76 12 -10 22 -10 46 -1 22 8 35 8 48 -1 24 -15 38 -2 23 22 -8 13 -8
22 -1 29 6 6 8 18 4 28 -6 16 -8 16 -26 -1 -18 -16 -20 -16 -26 -2 -3 9 1 24
10 32 20 20 20 20 0 39 -15 16 -37 19 -61 9z m27 -108 c0 -8 -4 -15 -10 -15
-5 0 -10 7 -10 15 0 8 5 15 10 15 6 0 10 -7 10 -15z"/>
<path d="M4992 1318 c2 -68 6 -83 20 -86 12 -2 17 5 20 30 2 24 9 34 23 36 24
4 45 29 45 53 0 29 -29 49 -71 49 -40 0 -40 0 -37 -82z m66 29 c2 -10 -3 -17
-12 -17 -10 0 -16 9 -16 21 0 24 23 21 28 -4z"/>
<path d="M5127 1393 c-3 -5 -7 -42 -8 -83 -4 -69 -2 -75 16 -75 15 0 20 7 20
29 0 41 20 43 31 4 11 -36 42 -47 35 -13 -2 11 -3 45 -3 75 1 33 -3 57 -11 62
-15 10 -74 10 -80 1z m59 -34 c3 -6 0 -15 -7 -20 -14 -8 -32 9 -23 23 7 11 22
10 30 -3z"/>
<path d="M5261 1374 c-51 -65 4 -168 74 -136 13 6 27 23 31 37 8 33 17 32 31
-5 13 -34 52 -48 89 -31 19 8 24 18 24 46 0 37 -17 52 -45 41 -12 -4 -13 -10
-3 -31 13 -28 8 -38 -15 -30 -44 17 -20 105 28 105 16 0 25 6 25 15 0 10 -10
15 -34 15 -38 0 -63 -19 -72 -56 -7 -28 -24 -32 -24 -6 0 59 -72 83 -109 36z
m75 -36 c3 -11 3 -31 0 -44 -5 -19 -12 -25 -29 -22 -17 2 -23 11 -25 36 -6 56
38 80 54 30z"/>
<path d="M5532 1318 c2 -68 6 -83 20 -86 13 -2 18 6 20 35 4 38 4 38 21 2 14
-32 20 -36 48 -34 17 1 36 10 41 19 13 23 49 20 55 -4 7 -25 33 -27 33 -2 0 9
-7 47 -16 85 -14 58 -20 67 -39 67 -19 0 -25 -11 -44 -75 -12 -41 -23 -75 -26
-75 -2 0 -11 12 -19 27 -12 24 -12 30 2 50 12 19 12 29 4 48 -10 21 -18 25
-57 25 -46 0 -46 0 -43 -82z m63 32 c0 -7 -6 -15 -12 -17 -8 -3 -13 4 -13 17
0 13 5 20 13 18 6 -3 12 -11 12 -18z m121 -47 c-11 -11 -19 6 -11 24 8 17 8
17 12 0 3 -10 2 -21 -1 -24z"/>
<path d="M5794 1387 c-3 -8 -4 -45 -2 -83 2 -53 6 -69 18 -69 8 0 17 13 21 30
6 30 9 28 24 -21 8 -25 28 -11 39 27 10 34 10 34 15 -1 4 -22 12 -35 21 -35
12 0 14 13 11 75 -4 85 -5 90 -30 90 -13 0 -21 -10 -25 -35 -10 -50 -23 -52
-36 -5 -8 30 -16 40 -31 40 -11 0 -22 -6 -25 -13z"/>
<path d="M5974 1387 c-3 -8 -4 -45 -2 -83 3 -71 20 -95 26 -36 4 41 19 41 30
0 11 -44 30 -46 38 -4 9 48 24 56 24 12 0 -35 15 -56 29 -40 4 5 5 43 2 84 -5
65 -8 75 -25 75 -13 0 -23 -11 -30 -32 -16 -45 -24 -50 -31 -17 -4 16 -8 35
-11 42 -5 16 -43 15 -50 -1z"/>
<path d="M6152 1318 c2 -66 6 -83 18 -83 12 0 15 16 15 80 0 69 -2 80 -18 83
-16 3 -18 -4 -15 -80z"/>
<path d="M6218 1324 c-2 -42 0 -81 4 -87 11 -18 26 3 30 43 3 35 3 35 26 -7
37 -70 47 -61 56 55 6 67 5 72 -13 72 -16 0 -20 -8 -23 -42 -3 -43 -3 -43 -26
0 -35 65 -50 56 -54 -34z"/>
<path d="M6393 1385 c-24 -17 -39 -71 -29 -109 7 -27 45 -43 89 -38 25 3 27 7
27 48 0 39 -2 44 -23 44 -32 0 -38 -8 -24 -31 13 -21 5 -34 -18 -26 -17 7 -20
53 -6 77 6 8 22 14 38 15 18 0 28 5 28 15 0 21 -55 24 -82 5z"/>
<path d="M6570 1380 c-31 -31 -27 -40 34 -83 27 -20 12 -38 -25 -30 -27 5 -31
3 -27 -13 7 -36 83 -29 97 8 12 32 2 58 -26 69 -30 11 -25 35 5 31 17 -2 22 2
22 17 0 28 -52 29 -80 1z"/>
<path d="M6684 1387 c-3 -8 -4 -45 -2 -83 3 -69 3 -69 48 -69 35 0 45 4 48 18
3 13 -3 17 -28 17 -25 0 -31 4 -28 18 2 9 12 17 23 17 11 0 20 7 20 15 0 8 -9
15 -20 15 -11 0 -20 7 -20 15 0 9 9 15 25 15 16 0 25 6 25 15 0 21 -83 27 -91
7z"/>
<path d="M6804 1387 c-3 -8 -4 -45 -2 -83 2 -53 6 -69 18 -69 9 0 15 10 16 28
2 43 12 44 29 3 16 -38 43 -45 36 -10 -1 10 -3 42 -3 69 0 28 -4 56 -10 63
-14 16 -77 16 -84 -1z m61 -37 c0 -7 -6 -15 -12 -17 -8 -3 -13 4 -13 17 0 13
5 20 13 18 6 -3 12 -11 12 -18z"/>
<path d="M6920 1385 c0 -9 7 -45 16 -80 12 -47 22 -66 36 -71 27 -8 33 0 52
78 20 82 20 88 2 88 -15 0 -19 -10 -31 -67 -9 -44 -23 -42 -30 5 -4 20 -8 43
-10 50 -6 17 -35 15 -35 -3z"/>
<path d="M7058 1325 c-3 -83 2 -101 25 -92 22 8 17 161 -6 165 -13 3 -16 -10
-19 -73z"/>
<path d="M7141 1374 c-29 -37 -28 -88 4 -120 28 -28 68 -29 73 -2 2 12 -5 17
-25 20 -24 2 -28 8 -31 36 -4 40 12 62 39 55 17 -5 20 -2 17 13 -5 31 -52 30
-77 -2z"/>
<path d="M7249 1393 c-7 -74 -4 -144 7 -154 20 -16 78 -7 82 14 3 13 -3 17
-28 17 -25 0 -31 4 -28 18 2 9 14 18 26 20 29 4 24 26 -7 30 -30 5 -21 26 12
30 48 6 33 32 -18 32 -25 0 -45 -3 -46 -7z"/>
<path d="M7378 1389 c-18 -10 -24 -45 -10 -65 4 -6 17 -16 30 -23 30 -16 13
-40 -23 -33 -18 3 -25 0 -25 -12 0 -31 85 -28 105 4 12 20 -4 56 -30 68 -37
17 -33 43 6 35 27 -5 31 -3 27 13 -4 22 -53 30 -80 13z"/>
</g>
</svg>
